<svg id="Account_icon" data-name="Account icon" xmlns="http://www.w3.org/2000/svg" width="20" height="20" viewBox="0 0 20 20">
  <g id="icons">
    <path id="profile-_1341_" d="M10,10a4,4,0,1,1,4.019-4A4.014,4.014,0,0,1,10,10m3.776.673a5.978,5.978,0,0,0,2.182-5.6A6.032,6.032,0,0,0,3.976,6a5.973,5.973,0,0,0,2.253,4.673A9.532,9.532,0,0,0,.009,18.892a1.012,1.012,0,0,0,1,1.109.99.99,0,0,0,.993-.891A7.637,7.637,0,0,1,10,12a7.637,7.637,0,0,1,8,7.109A.99.99,0,0,0,19,20a1.012,1.012,0,0,0,1-1.109,9.532,9.532,0,0,0-6.219-8.218" transform="translate(-0.005 -0.001)" fill="#6d6d6d" fill-rule="evenodd"/>
  </g>
</svg>
