<svg id="All_Campaigns-01" data-name="All Campaigns-01" xmlns="http://www.w3.org/2000/svg" width="21.973" height="22.575" viewBox="0 0 21.973 22.575">
  <path id="Path_8" data-name="Path 8" d="M20.558.26a6.621,6.621,0,0,1,1.01.51,1.707,1.707,0,0,1,.711,1.423V17.759a2.042,2.042,0,0,1-1.711,2.134,1.589,1.589,0,0,1-1.26-.24c-1.365-.856-2.721-1.721-4.1-2.548a21.128,21.128,0,0,0-5.24-2.317c-.192-.048-.375-.1-.6-.154a6.865,6.865,0,0,0,.3,1.846,4.879,4.879,0,0,0,1.308,2.231,1.371,1.371,0,0,1,.394,1.336c-.106.529-.192,1.048-.317,1.577a1.492,1.492,0,0,1-2.375.9,8.6,8.6,0,0,1-2.875-3.711A12.219,12.219,0,0,1,4.9,14.643c0-.048-.01-.087-.01-.144-.308-.029-.615-.048-.913-.1a4.431,4.431,0,0,1,.115-8.749,5.425,5.425,0,0,1,.788-.048c.952-.01,1.894-.029,2.846.01A6.344,6.344,0,0,0,9.886,5.26,26.388,26.388,0,0,0,14.6,3.106c1.471-.817,2.942-1.644,4.423-2.461.279-.154.586-.26.875-.385ZM9.376,6.942c.01-.029,0,0,0,.019v6.086c0,.135.067.154.173.183.231.048.462.106.683.163a22.437,22.437,0,0,1,5.855,2.577c1.327.8,2.634,1.634,3.942,2.452a.443.443,0,0,0,.26.087.653.653,0,0,0,.6-.692V2.366a.609.609,0,0,0-.933-.577c-1.038.558-2.077,1.115-3.106,1.692a42.353,42.353,0,0,1-4.817,2.5C11.155,6.327,10.271,6.615,9.376,6.942ZM7.944,13.057V7.048a.71.71,0,0,0-.115-.019c-1.106,0-2.221-.019-3.327.019a3.01,3.01,0,0,0,.3,6.009H7.944ZM6.338,14.5a10.25,10.25,0,0,0,.942,4.086,7,7,0,0,0,2.183,2.75c.173.125.212.115.26-.1.1-.462.183-.923.269-1.385a.275.275,0,0,0-.058-.212,6.551,6.551,0,0,1-1.808-3.625c-.1-.5-.135-1.01-.212-1.529C7.405,14.5,6.886,14.5,6.338,14.5Z" transform="translate(-0.306 -0.26)" fill="#e41c39"/>
</svg>
