<svg id="anniversary-01" xmlns="http://www.w3.org/2000/svg" width="18.9" height="19.46" viewBox="0 0 18.9 19.46">
  <path id="Path_103" data-name="Path 103" d="M14.291,8.325c-.174,0-.348-.087-.523-.087a1.674,1.674,0,0,0-1.045.348.551.551,0,0,0-.087.784.461.461,0,0,0,.7.087.785.785,0,0,1,.436-.087c.261,0,.436.087.7.087a.721.721,0,0,0,.871-.784V8.325c0-.174-.087-.348-.087-.523,0-.261,0-.261.261-.261.174,0,.436.087.61.087a.865.865,0,0,0,1.045-1.045c0-.174-.087-.436-.087-.61s0-.261.261-.261c.174,0,.436.087.61.087Q19.126,5.93,19,4.754c0-.261-.087-.436-.087-.7,0-.174,0-.174.174-.174h.174c.261,0,.436.087.7.087a.781.781,0,0,0,.871-.871c0-.261-.087-.436-.087-.7a.785.785,0,0,1,.087-.436.648.648,0,0,0-.087-.784.56.56,0,0,0-.784.087,1.405,1.405,0,0,0-.261.784,1.482,1.482,0,0,0,.087.61,1.522,1.522,0,0,0-1.481.261,2.149,2.149,0,0,0-.436,1.829,1.522,1.522,0,0,0-1.481.261A1.522,1.522,0,0,0,16.12,6.5a1.522,1.522,0,0,0-1.481.261A1.724,1.724,0,0,0,14.291,8.325Zm6.011,2a.58.58,0,0,0,.61-.436c.087-.261-.087-.523-.436-.61a5.184,5.184,0,0,0-2-.087,6.134,6.134,0,0,0-3.31,1.742.67.67,0,0,0-.087.871.582.582,0,0,0,.871,0c.261-.174.436-.436.7-.61a4.258,4.258,0,0,1,3.223-.871A.68.68,0,0,1,20.3,10.329ZM13.507,3.186c-.087-.436-.087-.784-.174-1.132a.551.551,0,0,0-.7-.348.69.69,0,0,0-.436.7,3.625,3.625,0,0,1-.436,2.962,6.578,6.578,0,0,1-.958,1.22c-.174.261-.261.61,0,.784.261.261.523.174.784,0l.174-.174A5.833,5.833,0,0,0,13.507,3.186Zm5.836,9.756a.5.5,0,0,0-.523-.523.583.583,0,0,0-.61.523.5.5,0,0,0,.523.523A.49.49,0,0,0,19.343,12.942ZM10.023,3.621c-.348,0-.523.261-.523.61a.523.523,0,0,0,1.045,0C10.545,3.882,10.371,3.621,10.023,3.621ZM15.6,3.97a.652.652,0,0,0,.61-.523.652.652,0,0,0-.523-.61.652.652,0,0,0-.61.523A.49.49,0,0,0,15.6,3.97ZM19.6,6.844a.523.523,0,1,0,.523.523A.562.562,0,0,0,19.6,6.844Z" transform="translate(-2.099 -1.061)" fill="#6d6d6d"/>
  <path id="Path_104" data-name="Path 104" d="M1.436,21.258c-.436-.174-.523-.436-.348-.871,1.568-4.181,3.136-8.276,4.7-12.457.087-.174.174-.436.436-.436a.576.576,0,0,1,.523.087l.174.174,7.753,7.753c.436.436.348.871-.261,1.045l-12.544,4.7a.085.085,0,0,0-.087.087A.658.658,0,0,0,1.436,21.258ZM6.576,8.976a7.666,7.666,0,0,0-.436,1.307c0,.087-.087.174-.087.348A9.869,9.869,0,0,0,6.14,12.9,8.961,8.961,0,0,0,8.4,17.425a.32.32,0,0,0,.261.087,1.238,1.238,0,0,1,.523-.174c.61-.174,1.132-.436,1.742-.61-.174-.348-.436-.61-.61-.958a10.339,10.339,0,0,1-1.394-4.181.453.453,0,0,0-.174-.348L7.8,10.282C7.36,9.76,7.011,9.411,6.576,8.976ZM5.095,13.157a.085.085,0,0,1-.087.087L3.7,16.641v.174a9.327,9.327,0,0,0,1.307,1.916.32.32,0,0,0,.261.087c.7-.261,1.307-.523,2-.784.087,0,.087-.087.174-.087A9.222,9.222,0,0,1,5.095,13.157Zm8.188,2.613-2.962-2.962a9.109,9.109,0,0,0,1.655,3.31.3.3,0,0,0,.174.087A4.376,4.376,0,0,1,13.283,15.77ZM2.568,19.777c.523-.174.958-.348,1.394-.523a12.743,12.743,0,0,1-.784-1.132A9.288,9.288,0,0,0,2.568,19.777Z" transform="translate(-1.003 -1.885)" fill="#6d6d6d"/>
  <path id="Path_105" data-name="Path 105" d="M14.724,8.364a1.522,1.522,0,0,1,.261-1.481,1.522,1.522,0,0,1,1.481-.261,1.522,1.522,0,0,1,.261-1.481,1.522,1.522,0,0,1,1.481-.261,2.086,2.086,0,0,1,.436-1.655,1.522,1.522,0,0,1,1.481-.261,1.292,1.292,0,0,0-.087-.61,1.065,1.065,0,0,1,.261-.784.558.558,0,1,1,.871.7.653.653,0,0,0-.087.436c0,.261.087.436.087.7a.781.781,0,0,1-.871.871c-.261,0-.436-.087-.7-.087h-.174c-.174,0-.174.087-.174.174,0,.261.087.436.087.7.087.784-.348,1.132-1.045,1.045-.174,0-.436-.087-.61-.087-.261,0-.261,0-.261.261,0,.174.087.436.087.61.087.7-.261,1.132-1.045,1.045-.174,0-.436-.087-.61-.087-.261,0-.261,0-.261.261,0,.174.087.348.087.523v.348a.721.721,0,0,1-.871.784c-.261,0-.436-.087-.7-.087a.785.785,0,0,0-.436.087.527.527,0,0,1-.7-.087.56.56,0,0,1,.087-.784,1.389,1.389,0,0,1,1.045-.348A.615.615,0,0,1,14.724,8.364Z" transform="translate(-2.532 -1.099)" fill="#6d6d6d"/>
  <path id="Path_106" data-name="Path 106" d="M21.116,11.511c-.087,0-.261-.087-.348-.087a4.258,4.258,0,0,0-3.223.871,4.363,4.363,0,0,0-.7.61.582.582,0,0,1-.871,0,.588.588,0,0,1,.087-.871,6.134,6.134,0,0,1,3.31-1.742,5.184,5.184,0,0,1,2,.087.655.655,0,0,1,.436.61A.662.662,0,0,1,21.116,11.511Z" transform="translate(-2.913 -2.243)" fill="#6d6d6d"/>
  <path id="Path_107" data-name="Path 107" d="M13.676,3.265a6.025,6.025,0,0,1-1.742,3.92c-.087.087-.087.174-.174.174a.488.488,0,0,1-.784,0c-.261-.174-.174-.523,0-.784a11.711,11.711,0,0,0,.958-1.22,3.937,3.937,0,0,0,.436-2.962.572.572,0,0,1,.436-.7.592.592,0,0,1,.7.348A6.833,6.833,0,0,1,13.676,3.265Z" transform="translate(-2.268 -1.14)" fill="#6d6d6d"/>
  <path id="Path_108" data-name="Path 108" d="M20.645,14.62a.5.5,0,0,1-.523.523.562.562,0,0,1-.523-.523.49.49,0,0,1,.61-.523A.565.565,0,0,1,20.645,14.62Z" transform="translate(-3.4 -2.739)" fill="#6d6d6d"/>
  <path id="Path_109" data-name="Path 109" d="M10.023,4a.523.523,0,1,1,0,1.045A.406.406,0,0,1,9.5,4.61C9.5,4.261,9.674,4,10.023,4Z" transform="translate(-2.099 -1.44)" fill="#6d6d6d"/>
  <path id="Path_110" data-name="Path 110" d="M16.423,4.232c-.348,0-.523-.261-.523-.61s.261-.523.61-.523.523.261.523.61A.747.747,0,0,1,16.423,4.232Z" transform="translate(-2.924 -1.324)" fill="#6d6d6d"/>
  <path id="Path_111" data-name="Path 111" d="M21.02,7.7a.523.523,0,1,1-.523.523C20.41,7.961,20.672,7.7,21.02,7.7Z" transform="translate(-3.514 -1.916)" fill="#6d6d6d"/>
</svg>
