<svg id="Component_36_1" data-name="Component 36 – 1" xmlns="http://www.w3.org/2000/svg" xmlns:xlink="http://www.w3.org/1999/xlink" width="30" height="30" viewBox="0 0 30 30">
  <defs>
    <clipPath id="clip-path">
      <rect id="Rectangle_628" data-name="Rectangle 628" width="30" height="30" transform="translate(0 0)" fill="none"/>
    </clipPath>
    <linearGradient id="linear-gradient" x1="-0.792" y1="2.317" x2="-0.786" y2="2.317" gradientUnits="objectBoundingBox">
      <stop offset="0" stop-color="#fff"/>
      <stop offset="1" stop-color="#231f20"/>
    </linearGradient>
  </defs>
  <g id="Group_368" data-name="Group 368" transform="translate(0 0)" clip-path="url(#clip-path)">
    <path id="Path_470" data-name="Path 470" d="M174.681,242.9V232h-.954v10.595a4.772,4.772,0,0,0-1.909,0V232h-.954v10.9A4.778,4.778,0,0,0,168,247.271v.477h9.544v-.477a4.777,4.777,0,0,0-2.863-4.371m-5.7,3.894a3.818,3.818,0,0,1,7.576,0Z" transform="translate(-158.247 -217.748)" fill="#fff"/>
    <path id="Path_471" data-name="Path 471" d="M29.587,2.863H16.7V1.909a1.909,1.909,0,0,0-3.818,0v.954H0V6.681H4.56A1.886,1.886,0,0,0,5.15,9.224L1.567,18.18A1.427,1.427,0,0,0,1.6,20.96l.973,1.946H9.362L10.316,21H10.5a1.429,1.429,0,0,0,.342-2.817L7.258,9.224a1.886,1.886,0,0,0,.589-2.544h2.174V5.726H2.863V3.818h10.5V3.34h.477V1.909a.954.954,0,0,1,1.909,0V3.34h.477v.477h10.5V5.726H19.565v.954H21.74a1.886,1.886,0,0,0,.589,2.544L18.747,18.18a1.427,1.427,0,0,0,.028,2.78l.973,1.946h6.794L27.5,21h.182a1.429,1.429,0,0,0,.342-2.817L24.437,9.224a1.886,1.886,0,0,0,.589-2.544h4.56ZM8.772,21.952H3.158L2.681,21H9.249ZM10.5,20.043H1.909a.477.477,0,1,1,0-.954H10.5a.477.477,0,1,1,0,.954M6.358,9.544l3.436,8.59H2.614L6.05,9.544Zm.8-1.909A.954.954,0,1,1,6.2,6.681a.955.955,0,0,1,.954.954M1.909,5.726H.954V3.818h.954ZM25.951,21.952H20.338L19.86,21h6.568Zm1.727-1.909h-8.59a.477.477,0,0,1,0-.954h8.59a.477.477,0,1,1,0,.954m-4.141-10.5,3.436,8.59h-7.18l3.436-8.59Zm.8-1.909a.954.954,0,1,1-.954-.954.955.955,0,0,1,.954.954m4.295-1.909h-.954V3.818h.954Z" transform="translate(-0.269 0.413)" fill="#fff"/>
    <path id="Path_472" data-name="Path 472" d="M157.719,51.2a5.726,5.726,0,1,1-5.726,5.726,5.726,5.726,0,0,1,5.726-5.726m-2.546,2.785v.024H156.4a2.277,2.277,0,0,1,.7.126,1.286,1.286,0,0,1,.729.594v.01h-2.191q-.01,0-.468.666a.017.017,0,0,0,.019.019h2.761a.794.794,0,0,1-.058.3q-.372.99-1.9.99a4.119,4.119,0,0,1-.565-.034l-.01.024v.642q0,.014,2.722,3.186h1.009c.016,0,.024-.006.024-.019v-.13l-2.293-2.766a1.786,1.786,0,0,1-.3-.4v-.01a3,3,0,0,0,1.293-.323,2.017,2.017,0,0,0,.758-.632,1.969,1.969,0,0,0,.328-.825h.859q.01,0,.454-.666,0-.014-.024-.019h-1.322a1.623,1.623,0,0,0-.348-.729h1.24a7.148,7.148,0,0,0,.463-.676v-.01h-4.643q-.014,0-.459.661" transform="translate(-143.195 -47.734)" fill="#fff"/>
    <path id="Path_473" data-name="Path 473" d="M157.719,51.2h0a5.726,5.726,0,1,1-5.726,5.726,5.726,5.726,0,0,1,5.726-5.726h0a5.726,5.726,0,1,0,5.727,5.726,5.727,5.727,0,0,0-5.727-5.726Zm-2.546,2.785h0v.024H156.4a2.277,2.277,0,0,1,.7.126,1.286,1.286,0,0,1,.729.594v.01h-2.191q-.01,0-.468.666a.017.017,0,0,0,.019.019h2.761a.794.794,0,0,1-.058.3q-.372.99-1.9.99a4.119,4.119,0,0,1-.565-.034l-.01.024v.642q0,.014,2.722,3.186h1.009c.016,0,.024-.006.024-.019v-.13l-2.293-2.766a1.786,1.786,0,0,1-.3-.4v-.01a3,3,0,0,0,1.293-.323,2.017,2.017,0,0,0,.758-.632,1.969,1.969,0,0,0,.328-.825h.859q.01,0,.454-.666,0-.014-.024-.019h-1.322a1.623,1.623,0,0,0-.348-.729h1.24a7.148,7.148,0,0,0,.463-.676v-.01h-4.643q-.014,0-.459.661h0q.444-.661.459-.661h4.643v.01a7.148,7.148,0,0,1-.463.676h-1.24a1.623,1.623,0,0,1,.348.729h1.322q.024,0,.024.019-.444.666-.454.666h-.859a1.969,1.969,0,0,1-.328.825,2.017,2.017,0,0,1-.758.632,3,3,0,0,1-1.293.323v.01a1.786,1.786,0,0,0,.3.4l2.293,2.766v.13c0,.013-.008.019-.024.019h-1.009q-2.722-3.171-2.722-3.186V56.7l.01-.024a4.119,4.119,0,0,0,.565.034q1.525,0,1.9-.99a.794.794,0,0,0,.058-.3h-2.761a.017.017,0,0,1-.019-.019q.458-.666.468-.666h2.191v-.01a1.286,1.286,0,0,0-.729-.594,2.277,2.277,0,0,0-.7-.126h-1.226v-.024Z" transform="translate(-143.195 -47.734)" fill="url(#linear-gradient)"/>
  </g>
</svg>
