<svg id="Birthday-01" xmlns="http://www.w3.org/2000/svg" width="17.029" height="18.001" viewBox="0 0 17.029 18.001">
  <path id="Path_37" data-name="Path 37" d="M8.455,9.5V5.269A.7.7,0,0,1,9.083,4.5a1.016,1.016,0,0,1,.471.077,7.9,7.9,0,0,1,1.1.615.8.8,0,0,1,.393.692V9.5h4.635a1.833,1.833,0,0,1,1.1.307,1.653,1.653,0,0,1,.629,1.384V16.8h.079a.945.945,0,0,1,.864,1v.692a.829.829,0,0,1-.786.692H2.248c-.471,0-.864-.231-.864-.615a3.238,3.238,0,0,1,0-1.23.844.844,0,0,1,.629-.615H2.17V11.11a1.61,1.61,0,0,1,.943-1.537c.157,0,.393-.077.707-.077H8.455Zm8.014,7.379v-3.92a4.238,4.238,0,0,0-.55.692,1.642,1.642,0,0,1-2.593-.077,2.337,2.337,0,0,1-.393-.538.744.744,0,0,0-1.257,0c-.236.231-.393.538-.629.769a1.612,1.612,0,0,1-2.514-.154,2.337,2.337,0,0,1-.393-.538.754.754,0,0,0-1.336,0c-.236.231-.393.538-.629.769a1.4,1.4,0,0,1-1.493.461,2.07,2.07,0,0,1-1.1-.692c-.157-.154-.314-.384-.471-.538v3.92C7.434,16.875,11.912,16.875,16.469,16.875ZM9.712,10.419H3.662a.678.678,0,0,0-.629.692V11.8c0,.154.079.154.157.231a2.767,2.767,0,0,1,.629.384c.157.154.314.384.55.615a.818.818,0,0,0,1.336,0c.236-.231.393-.461.629-.692a1.659,1.659,0,0,1,2.514.077c.157.231.314.384.471.615a.744.744,0,0,0,1.257,0,3.876,3.876,0,0,1,.55-.615,1.678,1.678,0,0,1,2.671.077c.157.231.314.384.471.615a.746.746,0,0,0,1.178,0c.157-.154.236-.307.393-.461a1.8,1.8,0,0,1,.786-.538c.079,0,.079-.077.079-.154v-.692a.821.821,0,0,0-.236-.538c-.157-.231-.393-.231-.707-.231C13.64,10.419,11.676,10.419,9.712,10.419ZM2.091,18.413H17.333v-.692H2.091Q2.091,18.067,2.091,18.413ZM9.319,6.883V7.959a5.738,5.738,0,0,0,.707.384V7.421c0-.077,0-.077-.079-.154A1.716,1.716,0,0,0,9.319,6.883ZM10.026,9.5V8.881A.076.076,0,0,0,9.948,8.8c-.236-.154-.393-.231-.629-.384V9.5Zm0-2.844V5.96a.076.076,0,0,0-.079-.077c-.236-.154-.393-.231-.629-.384v.692a.076.076,0,0,0,.079.077A4.4,4.4,0,0,0,10.026,6.652Z" transform="translate(-1.325 -1.181)" fill="#6d6d6d"/>
  <path id="Path_38" data-name="Path 38" d="M13.192,1.395l-.707.471a.634.634,0,0,0-.236.707c0,.079.079.157.079.236a.479.479,0,0,1-.236.55.486.486,0,0,1-.55-.157,1.513,1.513,0,0,1,.471-2.043,3.78,3.78,0,0,0,.864-.707c.157-.236.393-.236.629,0a2.04,2.04,0,0,1-.471,3.378.451.451,0,0,1-.55-.157.338.338,0,0,1,.157-.55,1.238,1.238,0,0,0,.55-.55A1.518,1.518,0,0,0,13.192,1.395Z" transform="translate(-3.47 -0.275)" fill="#6d6d6d"/>
</svg>
