<svg id="Buzzes-01-01" xmlns="http://www.w3.org/2000/svg" width="21.6" height="20.501" viewBox="0 0 21.6 20.501">
  <path id="Path_39" data-name="Path 39" d="M.7,15.053a1.009,1.009,0,0,1,.668-.573c.382-.1.764-.286,1.146-.382.477-.1.859,0,.955.477a.837.837,0,0,1-.477.955c-.382.1-.764.286-1.146.382A.923.923,0,0,1,.7,15.435Z" transform="translate(-0.7 -2.476)" fill="#6d6d6d"/>
  <path id="Path_40" data-name="Path 40" d="M11.613,3.1a1.7,1.7,0,0,1,1.527.955c.477.955.955,2,1.432,2.96.1.1.191.191.286.191,1.146.286,2.291.382,3.437.573a1.525,1.525,0,0,1,1.337,1.146,1.619,1.619,0,0,1-.382,1.718c-.764.764-1.527,1.527-2.387,2.291-.191.191-.191.286-.191.573l.573,3.15a1.549,1.549,0,0,1-.668,1.623,1.576,1.576,0,0,1-1.814.1c-.955-.477-1.909-.955-2.864-1.527a.609.609,0,0,0-.573,0c-.955.477-1.909.955-2.864,1.527a1.7,1.7,0,0,1-2.482-.955,1.625,1.625,0,0,1-.1-.668l.573-3.437a.351.351,0,0,0-.1-.286,28.128,28.128,0,0,0-2.387-2.387,1.621,1.621,0,0,1,.286-2.578,1.27,1.27,0,0,1,.764-.286c1.05-.191,2.2-.286,3.246-.477.191,0,.191-.1.286-.191.477-1.05.955-2,1.527-3.055A1.7,1.7,0,0,1,11.613,3.1Zm0,12.124c.191.1.382.1.477.191,1.05.573,2.1,1.146,3.246,1.718a.29.29,0,0,0,.382,0c.191-.1.1-.191.1-.382-.191-1.241-.382-2.387-.668-3.628a.725.725,0,0,1,.286-.859c.859-.859,1.814-1.718,2.673-2.578.1-.1.191-.191.1-.286,0-.1-.191-.191-.286-.191l-3.723-.573a.636.636,0,0,1-.668-.477c-.573-1.146-1.05-2.2-1.623-3.246,0-.1,0-.1-.1-.191-.1-.191-.286-.191-.477,0a.333.333,0,0,0-.1.191c-.573,1.146-1.05,2.2-1.623,3.341a.877.877,0,0,1-.573.382c-.382.1-.764.1-1.146.191a25.733,25.733,0,0,0-2.673.382.205.205,0,0,0-.191.191.351.351,0,0,0,.1.286l.1.1c.859.764,1.623,1.623,2.578,2.482a.916.916,0,0,1,.286.955C7.89,14.461,7.7,15.7,7.413,16.943a.351.351,0,0,0,.1.286h.286a.094.094,0,0,0,.1-.1c1.05-.573,2.2-1.146,3.246-1.718C11.327,15.32,11.422,15.224,11.613,15.224Z" transform="translate(-0.825 -1.979)" fill="#6d6d6d"/>
  <path id="Path_41" data-name="Path 41" d="M22.3,15.908h-.191c-.477-.191-.859-.286-1.337-.477A.755.755,0,1,1,21.254,14c.477.191.955.286,1.432.477a.627.627,0,0,1,.477.764A.761.761,0,0,1,22.3,15.908Z" transform="translate(-1.587 -2.472)" fill="#6d6d6d"/>
  <path id="Path_42" data-name="Path 42" d="M6.023,4.574a.577.577,0,0,1-.573-.286A6.129,6.129,0,0,1,4.5,3.047a.74.74,0,0,1,.191-.955.6.6,0,0,1,.955.191L6.5,3.429a.577.577,0,0,1,0,.764C6.5,4.479,6.214,4.574,6.023,4.574Z" transform="translate(-0.867 -1.926)" fill="#6d6d6d"/>
  <path id="Path_43" data-name="Path 43" d="M17.869,4.579A.523.523,0,0,1,17.3,4.2a.807.807,0,0,1,0-.668,6.129,6.129,0,0,1,.955-1.241.638.638,0,0,1,.955-.1.74.74,0,0,1,.191.955,6.129,6.129,0,0,1-.955,1.241A1.024,1.024,0,0,1,17.869,4.579Z" transform="translate(-1.449 -1.93)" fill="#6d6d6d"/>
  <path id="Path_44" data-name="Path 44" d="M12.632,21.827V22.5a.753.753,0,0,1-.764.764A.681.681,0,0,1,11.2,22.5V21.064a.738.738,0,0,1,.668-.764c.382,0,.668.286.764.764Z" transform="translate(-1.176 -2.758)" fill="#6d6d6d"/>
</svg>
