<svg id="Component_27_2" data-name="Component 27 – 2" xmlns="http://www.w3.org/2000/svg" xmlns:xlink="http://www.w3.org/1999/xlink" width="22.744" height="22.828" viewBox="0 0 22.744 22.828">
  <defs>
    <clipPath id="clip-path">
      <rect id="Rectangle_693" data-name="Rectangle 693" width="22.744" height="22.828" fill="#fff"/>
    </clipPath>
  </defs>
  <g id="Group_133" data-name="Group 133" clip-path="url(#clip-path)">
    <path id="Path_155" data-name="Path 155" d="M150.912,144.406a6.794,6.794,0,1,1-6.812,6.709,6.8,6.8,0,0,1,6.812-6.709m5.595,6.811a5.606,5.606,0,1,0-5.652,5.606,5.615,5.615,0,0,0,5.652-5.606" transform="translate(-134.945 -135.231)" fill="#fff"/>
    <path id="Path_156" data-name="Path 156" d="M204.216,193.269h4.992v.011a6.689,6.689,0,0,1-.5.728h-1.33a1.8,1.8,0,0,1,.375.785h1.421c.023,0,.023.011.023.023-.318.478-.478.716-.489.716h-.921a2.076,2.076,0,0,1-.353.887,2.132,2.132,0,0,1-.819.682,3.3,3.3,0,0,1-1.387.353v.011a2.005,2.005,0,0,0,.33.432l2.468,2.979v.136a.024.024,0,0,1-.023.023h-1.08c-1.956-2.274-2.934-3.423-2.934-3.423V196.9l.011-.023a4.668,4.668,0,0,0,.6.034c1.092,0,1.774-.353,2.047-1.069a1.341,1.341,0,0,0,.045-.318h-2.968a.024.024,0,0,1-.023-.023c.33-.478.5-.716.5-.716h2.354a1.375,1.375,0,0,0-.785-.637,2.391,2.391,0,0,0-.751-.136H203.7v-.034c.33-.466.5-.705.512-.705" transform="translate(-190.762 -180.99)" fill="#fff"/>
    <path id="Path_157" data-name="Path 157" d="M.154,21.395A1.959,1.959,0,0,1,0,20.516Q.006,11.26.006,2A1.9,1.9,0,0,1,.449.913,2.154,2.154,0,0,1,1.713.081,2.362,2.362,0,0,1,2.287.005Q8.323,0,14.359.007A2.228,2.228,0,0,1,16.467,1.2a2.054,2.054,0,0,1,.257.873c.1,1.81.016,3.621.043,5.431a.872.872,0,0,1-.506.832.777.777,0,0,1-1.02-.729c.008-1.663,0-3.327,0-4.99a1.687,1.687,0,0,0-.1-.662L15.11,1.9c-.053-.065-.059-.165-.152-.2L14.9,1.665a1.011,1.011,0,0,0-.527-.142H2.3a.747.747,0,0,0-.777.771q0,9.114,0,18.227A.739.739,0,0,0,2.3,21.3c2.492,0,4.984,0,7.476,0a.731.731,0,0,1,.761.377c-.01.034.01.045.038.049a.78.78,0,0,1-.719,1.1c-2.615-.017-5.23,0-7.846-.012a1.821,1.821,0,0,1-.992-.375,2.029,2.029,0,0,1-.827-1l-.038-.049" transform="translate(0 0)" fill="#fff"/>
    <path id="Path_158" data-name="Path 158" d="M48.191,48.117a.715.715,0,0,1,.55-.236c3.031,0,6.062-.011,9.094.006a.725.725,0,0,1,.828.814c.023,1.481.016,2.962,0,4.443a.785.785,0,0,1-.822.828c-3.023-.019-6.046-.009-9.07-.009A.68.68,0,0,1,48,53.2c0-1.536,0-3.073,0-4.609a.687.687,0,0,1,.1-.374.085.085,0,0,0,.095-.1M53.335,49.4c-1.206,0-2.413,0-3.62,0-.155,0-.2.039-.195.194q.012,1.331,0,2.662c0,.155.04.194.195.194q3.62-.008,7.239,0c.155,0,.2-.038.195-.194-.008-.879-.009-1.759,0-2.638,0-.178-.042-.22-.22-.219-1.2.009-2.4,0-3.6,0" transform="translate(-44.949 -44.836)" fill="#fff"/>
    <path id="Path_159" data-name="Path 159" d="M49.992,288.756a.741.741,0,0,1-.541.145c-.245-.01-.49,0-.736,0a.641.641,0,0,1-.666-.652c-.007-.612.249-.874.867-.865a4.6,4.6,0,0,1,.819.035.663.663,0,0,1,.545.5.715.715,0,0,1-.233.8c-.035-.011-.046.014-.055.039" transform="translate(-44.996 -269.121)" fill="#fff"/>
    <path id="Path_160" data-name="Path 160" d="M49.742,252.734a.737.737,0,0,1-.543.144c-.2-.009-.4,0-.595,0a.785.785,0,0,1-.806-.971.849.849,0,0,1,.647-.543,4.5,4.5,0,0,1,1.035.034.677.677,0,0,1,.552.491.726.726,0,0,1-.234.807c-.035-.011-.046.014-.055.039" transform="translate(-44.746 -235.38)" fill="#fff"/>
    <path id="Path_161" data-name="Path 161" d="M97.6,287.47a.722.722,0,0,1,0,1.256c-.035,0-.082-.029-.086.039-.044.1-.129.1-.218.1a7.481,7.481,0,0,0-.782,0,.99.99,0,0,1-.715-.256c-.089-.067-.058-.158-.079-.232a.757.757,0,0,1,.785-1.039,3.44,3.44,0,0,1,1.01.094c0,.068.051.04.086.039" transform="translate(-89.599 -269.081)" fill="#fff"/>
    <path id="Path_162" data-name="Path 162" d="M49.672,216.783a.868.868,0,0,1-.662.142c-.182,0-.365-.005-.547,0a.773.773,0,0,1-.719-1.013.7.7,0,0,1,.628-.5,4.087,4.087,0,0,1,1.034.033.678.678,0,0,1,.554.489.728.728,0,0,1-.233.809c-.035-.011-.046.014-.055.039" transform="translate(-44.676 -201.712)" fill="#fff"/>
    <path id="Path_163" data-name="Path 163" d="M49.742,180.9a.737.737,0,0,1-.543.144c-.2-.009-.4,0-.595,0a.785.785,0,0,1-.806-.971.849.849,0,0,1,.647-.543,4.494,4.494,0,0,1,1.035.034.677.677,0,0,1,.552.491.726.726,0,0,1-.234.807c-.035-.011-.046.014-.055.039" transform="translate(-44.746 -168.113)" fill="#fff"/>
    <path id="Path_164" data-name="Path 164" d="M96.711,252.877c-.211-.042-.475.078-.715-.093a.761.761,0,0,1,.43-1.432,6.352,6.352,0,0,1,.915.054.6.6,0,0,1,.51.448.764.764,0,0,1-.746,1.022h-.394" transform="translate(-89.524 -235.381)" fill="#fff"/>
    <path id="Path_165" data-name="Path 165" d="M95.933,216.777c-.313-.356.12-1.068.53-1.072a3.83,3.83,0,0,1,1.2.047c.335.1.4.384.455.658a.8.8,0,0,1-.39.686,2.975,2.975,0,0,1-1.34.075.481.481,0,0,1-.417-.36c.006-.031,0-.045-.036-.034" transform="translate(-89.738 -201.978)" fill="#fff"/>
    <path id="Path_166" data-name="Path 166" d="M96.7,181.043c-.211-.043-.475.078-.715-.094a.762.762,0,0,1,.437-1.431,5.821,5.821,0,0,1,.915.056.543.543,0,0,1,.467.368.757.757,0,0,1-.685,1.1c-.126.007-.254,0-.418,0" transform="translate(-89.52 -168.111)" fill="#fff"/>
    <path id="Path_167" data-name="Path 167" d="M49.226,51.655a.085.085,0,0,1-.095.1c-.088-.151.066-.06.095-.1" transform="translate(-45.984 -48.373)" fill="#fff"/>
    <path id="Path_168" data-name="Path 168" d="M124.646,309.144c0-.068.051-.04.086-.039,0,.079-.038.067-.086.039" transform="translate(-116.727 -289.46)" fill="#fff"/>
    <path id="Path_169" data-name="Path 169" d="M124.734,288.551c-.035,0-.082.029-.086-.039.047-.028.087-.04.086.039" transform="translate(-116.729 -270.162)" fill="#fff"/>
    <path id="Path_170" data-name="Path 170" d="M78.633,308.443c.01-.025.02-.05.055-.039l-.055.039" transform="translate(-73.637 -288.808)" fill="#fff"/>
    <path id="Path_171" data-name="Path 171" d="M165.858,341.279c-.028,0-.049-.015-.038-.049l.038.049" transform="translate(-155.282 -319.551)" fill="#fff"/>
    <path id="Path_172" data-name="Path 172" d="M2.392,336.743l.038.049c-.028,0-.048-.015-.038-.049" transform="translate(-2.238 -315.349)" fill="#fff"/>
    <path id="Path_173" data-name="Path 173" d="M97.513,232.882c.033-.011.043,0,.036.034l-.036-.034" transform="translate(-91.318 -218.083)" fill="#fff"/>
    <path id="Path_174" data-name="Path 174" d="M78.633,236.611c.01-.025.02-.05.055-.039l-.055.039" transform="translate(-73.637 -221.539)" fill="#fff"/>
    <path id="Path_175" data-name="Path 175" d="M78.633,200.7c.01-.025.02-.05.055-.039l-.055.039" transform="translate(-73.637 -187.906)" fill="#fff"/>
    <path id="Path_176" data-name="Path 176" d="M78.633,272.527c.01-.025.02-.05.055-.039l-.055.039" transform="translate(-73.637 -255.173)" fill="#fff"/>
    <path id="Path_177" data-name="Path 177" d="M234.565,26.206l.055.039c-.035.01-.045-.014-.055-.039" transform="translate(-219.662 -24.541)" fill="#fff"/>
    <path id="Path_178" data-name="Path 178" d="M237.79,29.963l.038.05c-.028-.005-.049-.016-.038-.05" transform="translate(-222.68 -28.059)" fill="#fff"/>
  </g>
</svg>
