<svg id="Certificate-01" xmlns="http://www.w3.org/2000/svg" width="16.898" height="14.841" viewBox="0 0 16.898 14.841">
  <path id="Path_14" data-name="Path 14" d="M.5,15.824V2.6H17.4V15.9H15.047v1.543c-.073,0-.147,0-.147-.073-.514-.147-1.1-.367-1.616-.514H12.99c-.514.147-1.1.367-1.616.514-.073,0-.073,0-.147.073V15.9H.72A.27.27,0,0,0,.5,15.824Zm1.029-12.2V14.869h9.7V14.5a1.044,1.044,0,0,0-.147-.441,2.325,2.325,0,0,1-.073-2.645,2.387,2.387,0,0,1,2.351-1.175,2.468,2.468,0,0,1,1.69,3.894c0,.073-.073.073-.073.147v.661H16.3V3.7C11.447,3.629,6.451,3.629,1.529,3.629ZM13.137,14.135a1.469,1.469,0,1,0-1.469-1.469A1.474,1.474,0,0,0,13.137,14.135Zm.955.882a3.722,3.722,0,0,1-.955.147,3.688,3.688,0,0,1-.882-.147v1.1c.294-.073.514-.147.808-.22h.294c.22.073.514.147.808.22A6.345,6.345,0,0,1,14.092,15.016Z" transform="translate(-0.5 -2.6)" fill="#6d6d6d"/>
  <path id="Path_15" data-name="Path 15" d="M15.447,6.3v.955H4.5V6.3Z" transform="translate(-1.561 -3.582)" fill="#6d6d6d"/>
  <path id="Path_16" data-name="Path 16" d="M15.447,9.4v.955H4.5V9.4Z" transform="translate(-1.561 -4.404)" fill="#6d6d6d"/>
  <path id="Path_17" data-name="Path 17" d="M10.037,12.6v.955H4.6V12.6Z" transform="translate(-1.588 -5.253)" fill="#6d6d6d"/>
</svg>
