<svg id="Close_Ticket-01" data-name="Close Ticket-01" xmlns="http://www.w3.org/2000/svg" width="28.124" height="24.855" viewBox="0 0 28.124 24.855">
  <g id="Group_73" data-name="Group 73" transform="translate(16.283 11.482)">
    <path id="Path_123" data-name="Path 123" d="M17.981,11.212c.185.049.371.074.544.136a2.106,2.106,0,0,1,1.422,2.016v1.62h.111a5.82,5.82,0,0,1,.8.025,1.179,1.179,0,0,1,1.014,1.138c.012.321,0,.643,0,.977v3.153a1.186,1.186,0,0,1-1.237,1.212H14.927a1.2,1.2,0,0,1-1.237-1.249V16.22a1.2,1.2,0,0,1,1.249-1.249h.68V13.389a2.111,2.111,0,0,1,1.5-2.077c.148-.049.321-.074.482-.111C17.721,11.212,17.845,11.212,17.981,11.212Zm-.2,4.575H14.951a.415.415,0,0,0-.47.458v3.969a.41.41,0,0,0,.47.458H20.6a.419.419,0,0,0,.47-.47V16.233a.419.419,0,0,0-.47-.47C19.662,15.787,18.723,15.787,17.783,15.787Zm1.36-.8V13.339a.964.964,0,0,0-.037-.272,1.37,1.37,0,0,0-1.459-1.039,1.338,1.338,0,0,0-1.237,1.348V15C17.338,14.984,18.228,14.984,19.143,14.984Z" transform="translate(-13.69 -11.2)" fill="#fff"/>
    <path id="Path_124" data-name="Path 124" d="M16.737,17.692v-.173a.486.486,0,0,0-.161-.445.719.719,0,0,1,.074-1.039.742.742,0,1,1,.952,1.138.145.145,0,0,0-.062.136v.8a.386.386,0,0,1-.334.383.392.392,0,0,1-.433-.235.5.5,0,0,1-.037-.185Z" transform="translate(-13.052 -10.099)" fill="#fff"/>
  </g>
  <g id="Group_74" data-name="Group 74">
    <path id="Path_125" data-name="Path 125" d="M27.216,14.484A7.764,7.764,0,0,1,18.573,26.4a7.768,7.768,0,0,1-5.391-8.087c-.161.037-.284.062-.408.1-2.337.631-4.686,1.261-7.023,1.892A2.2,2.2,0,0,1,2.807,18.6Q1.694,14.5.619,10.441a2.177,2.177,0,0,1,1.62-2.819Q12.7,4.821,23.185,2.008a2.178,2.178,0,0,1,2.807,1.583q1.131,4.155,2.226,8.309a2.161,2.161,0,0,1-.9,2.485A.746.746,0,0,0,27.216,14.484Zm-6.306-3.24c.42.049.841.074,1.261.136a7.526,7.526,0,0,1,4.093,2.053.323.323,0,0,0,.495.025,1.122,1.122,0,0,0,.4-1.286c-.73-2.745-1.471-5.478-2.2-8.21a1.115,1.115,0,0,0-1.521-.89c-.8.21-1.607.433-2.411.655Q11.8,6.194,2.572,8.673a1.129,1.129,0,0,0-.9,1.546Q2.764,14.3,3.858,18.367a1.127,1.127,0,0,0,1.546.89q3.8-1.02,7.629-2.028a.6.6,0,0,0,.47-.458A7.765,7.765,0,0,1,20.91,11.245ZM27.55,19a6.646,6.646,0,1,0-6.64,6.652A6.649,6.649,0,0,0,27.55,19Z" transform="translate(-0.521 -1.914)" fill="#fff"/>
    <path id="Path_126" data-name="Path 126" d="M3.86,13.481a1.142,1.142,0,0,1,.779-1.237C6.321,11.787,8,11.33,9.684,10.9a1.064,1.064,0,0,1,1.286.754c.111.359.21.717.3,1.088a1.082,1.082,0,0,1-.8,1.348c-1.645.445-3.3.89-4.946,1.323A1.015,1.015,0,0,1,4.293,14.9,13.016,13.016,0,0,1,3.86,13.481ZM9.919,11.96c-1.657.445-3.3.89-4.971,1.335.1.359.185.692.284,1.051,1.669-.445,3.314-.89,4.971-1.335C10.1,12.64,10.018,12.306,9.919,11.96Z" transform="translate(0.268 0.202)" fill="#fff"/>
    <path id="Path_127" data-name="Path 127" d="M3.02,10.131A1.142,1.142,0,0,1,3.8,8.895c1.682-.458,3.363-.915,5.045-1.348A1.064,1.064,0,0,1,10.13,8.3c.111.359.21.717.3,1.088a1.082,1.082,0,0,1-.8,1.348c-1.645.445-3.3.89-4.946,1.323a1.015,1.015,0,0,1-1.224-.507C3.255,11.034,3.131,10.477,3.02,10.131ZM9.091,8.61c-1.669.445-3.3.878-4.971,1.335.1.359.185.692.284,1.051,1.669-.445,3.314-.89,4.971-1.335C9.277,9.29,9.178,8.969,9.091,8.61Z" transform="translate(0.069 -0.59)" fill="#fff"/>
  </g>
</svg>
