<svg xmlns="http://www.w3.org/2000/svg" width="16.267" height="16.267" viewBox="0 0 16.267 16.267">
  <g id="chat-comment-oval-speech-bubble-with-text-lines" transform="translate(0)">
    <g id="_x32__26_" transform="translate(0 0)">
      <g id="Group_1" data-name="Group 1">
        <path id="Path_2" data-name="Path 2" d="M10.675,8.642H5.592a.508.508,0,1,0,0,1.017h5.083a.508.508,0,0,0,0-1.017Zm1.017-3.05H4.575a.508.508,0,0,0,0,1.017h7.117a.508.508,0,1,0,0-1.017ZM8.133,0C3.642,0,0,3.186,0,7.117a6.812,6.812,0,0,0,3.05,5.551v3.6L6.613,14.1a9.327,9.327,0,0,0,1.52.129c4.492,0,8.133-3.186,8.133-7.117S12.625,0,8.133,0Zm0,13.217a8.226,8.226,0,0,1-1.718-.187L4.022,14.469l.032-2.358A5.894,5.894,0,0,1,1.017,7.117c0-3.369,3.186-6.1,7.117-6.1s7.117,2.731,7.117,6.1S12.064,13.217,8.133,13.217Z" transform="translate(0 0)" fill="#7b8191"/>
      </g>
    </g>
  </g>
</svg>
