<svg id="corner-down-right" xmlns="http://www.w3.org/2000/svg" width="24" height="24" viewBox="0 0 24 24">
  <rect id="Rectangle_388" data-name="Rectangle 388" width="24" height="24" transform="translate(0 24) rotate(-90)" fill="#fff" opacity="0"/>
  <path id="Path_237" data-name="Path 237" d="M21.736,11.818,17.207,7.2a1.324,1.324,0,0,0-1.527-.088.814.814,0,0,0-.239,1.234L18.5,11.467H8.4a1.044,1.044,0,0,1-1.132-.924V5.924A1.044,1.044,0,0,0,6.132,5,1.044,1.044,0,0,0,5,5.924v4.62c0,1.531,1.521,2.772,3.4,2.772H18.5L15.44,16.44a.791.791,0,0,0-.187.921,1.112,1.112,0,0,0,.9.581,1.259,1.259,0,0,0,1.058-.356l4.529-4.62a.8.8,0,0,0,0-1.146Z" transform="translate(-0.961 0.662)" fill="#fff"/>
</svg>
