<svg id="Discarded-01" xmlns="http://www.w3.org/2000/svg" width="28.72" height="28.72" viewBox="0 0 28.72 28.72">
  <path id="Path_497" data-name="Path 497" d="M14.84.48A14.348,14.348,0,1,1,4.647,4.717,14.36,14.36,0,0,1,14.84.48Zm13.114,14.5A13.114,13.114,0,1,0,14.74,27.954,13.114,13.114,0,0,0,27.954,14.977Z" transform="translate(-0.48 -0.48)" fill="#fff"/>
  <path id="Path_498" data-name="Path 498" d="M20.125,15.469h0v-5.3A.578.578,0,1,0,18.982,10a.982.982,0,0,0,0,.336v9.937a2.044,2.044,0,0,1-.134.807,1.721,1.721,0,0,1-1.721,1.062H10.161A1.708,1.708,0,0,1,8.507,20.39V10.278a.578.578,0,0,0-1.156,0V20.337a2.918,2.918,0,0,0,2.958,2.985H17.14a2.259,2.259,0,0,0,.605,0,2.864,2.864,0,0,0,2.38-2.9C20.138,18.71,20.125,17.1,20.125,15.469Zm-9.884.847h0V20.35a.565.565,0,0,0,.363.578.538.538,0,0,0,.619-.094.713.713,0,0,0,.2-.551V12.618a2.918,2.918,0,0,0,0-.484.511.511,0,0,0-.417-.43.5.5,0,0,0-.565.161.9.9,0,0,0-.161.484C10.241,13.667,10.241,14.985,10.241,16.316Zm2.918,0v4.115a.592.592,0,0,0,.524.524.565.565,0,0,0,.605-.417,1.008,1.008,0,0,0,0-.282v-8a.578.578,0,0,0-1.156,0v4.034Zm2.9,0V20.35a.578.578,0,0,0,.672.605.592.592,0,0,0,.484-.645v-8a.578.578,0,0,0-1.156,0Z" transform="translate(0.741 1.03)" fill="#fff"/>
  <path id="Path_499" data-name="Path 499" d="M12.309,7.2V6.606a1.546,1.546,0,1,1,3.093,0v.605h4.034a1.56,1.56,0,0,1,1.6,1.21,4.034,4.034,0,0,1,0,.7v.592a.511.511,0,0,1-.592.592H7.267c-.471,0-.645-.175-.645-.645v-.78A1.56,1.56,0,0,1,8.3,7.2h4.034Zm7.732,2.057a4.746,4.746,0,0,0,0-.619c0-.255-.255-.4-.578-.4H8.208c-.269,0-.471.108-.511.336a3.927,3.927,0,0,0,0,.686ZM14.367,7.185V6.566a.524.524,0,0,0-.511-.417.5.5,0,0,0-.5.43q0,.3,0,.605Z" transform="translate(0.508 0.557)" fill="#fff"/>
  <path id="Path_500" data-name="Path 500" d="M19.247,15.064V19.38a2.582,2.582,0,0,1-2.125,2.6,2.353,2.353,0,0,1-.538,0H10.52A2.6,2.6,0,0,1,7.83,19.286V10.438a.524.524,0,0,1,.524-.565.511.511,0,0,1,.511.565v9.023a1.533,1.533,0,0,0,1.479,1.56h6.172a1.52,1.52,0,0,0,1.52-.955,1.8,1.8,0,0,0,.121-.713q0-4.411,0-8.835a.78.78,0,0,1,0-.309.524.524,0,0,1,.659-.323.484.484,0,0,1,.417.471.767.767,0,0,1,0,.175v4.532Z" transform="translate(0.911 1.24)" fill="#fff"/>
  <path id="Path_501" data-name="Path 501" d="M9.78,15.332V11.809a.861.861,0,0,1,.148-.417.511.511,0,0,1,.874.229,2.313,2.313,0,0,1,0,.43v6.8a.551.551,0,0,1-.188.484.471.471,0,0,1-.551.094.511.511,0,0,1-.282-.444Z" transform="translate(1.782 1.786)" fill="#fff"/>
  <path id="Path_502" data-name="Path 502" d="M11.711,15.345V11.9a.646.646,0,0,1,0-.161.511.511,0,1,1,1.022,0v7.114a1.681,1.681,0,0,1,0,.255.484.484,0,0,1-.538.363.5.5,0,0,1-.457-.457v-.632Z" transform="translate(2.25 1.787)" fill="#fff"/>
  <path id="Path_503" data-name="Path 503" d="M13.63,15.348V11.771a.52.52,0,1,1,1.035.013v7.127a.551.551,0,0,1-.444.565.511.511,0,0,1-.592-.538Z" transform="translate(2.717 1.784)" fill="#fff"/>
</svg>
