<svg id="Component_2_13" data-name="Component 2 – 13" xmlns="http://www.w3.org/2000/svg" xmlns:xlink="http://www.w3.org/1999/xlink" width="30.983" height="32.561" viewBox="0 0 30.983 32.561">
  <defs>
    <clipPath id="clip-path">
      <rect id="Rectangle_621" data-name="Rectangle 621" width="30.983" height="32.561" fill="none"/>
    </clipPath>
  </defs>
  <g id="Group_362" data-name="Group 362" clip-path="url(#clip-path)">
    <path id="Path_452" data-name="Path 452" d="M135.978,5.177,131.856.315l-.024-.027A.972.972,0,0,0,130.5.239l-3.285,2.871a.983.983,0,0,0-.1,1.376l.129.151-.212.185a2.407,2.407,0,0,1-2.264.393L122.3,4.507a3.505,3.505,0,0,0-2.687.446c-.018.01-6.3,3.647-6.313,3.658a1.75,1.75,0,0,0,.418,3.28,1.7,1.7,0,0,0,2.991,1.059c2.515-2.941,2.432-2.813,2.564-3.082l.1-.04a1.6,1.6,0,0,0,1.169,1.151c2.939.844,3.529,1.08,4.345.989,2.279-.247,2.8-.323,3.949-.991A18.1,18.1,0,0,0,131.228,9.3l.14.164a.956.956,0,0,0,1.36.1l3.127-2.733a1.19,1.19,0,0,0,.123-1.659m-18.531,5.454-1.45,1.7a.761.761,0,0,1-1.335-.529l2.785-1.166m10.916-.48c-.977.569-1.305.623-3.569.869-.621.067-1.113-.13-4-.957a.637.637,0,0,1-.508-.448.915.915,0,0,1-.02-.378.708.708,0,0,1,.115-.259.4.4,0,0,1,.429-.154c.892.124,3.016.412,3.037.415a.477.477,0,0,0,.125-.946c-.021,0-2.143-.29-3.034-.414a1.37,1.37,0,0,0-1.518.9l-.688.287s-4.188,1.768-4.606,1.89c-.758.108-1.277-.891-.324-1.534l6.288-3.642h0l.023-.014a2.56,2.56,0,0,1,1.96-.327l2.435.7a3.334,3.334,0,0,0,3.137-.589l.212-.185,2.75,3.223a17.145,17.145,0,0,1-2.249,1.569m6.876-4.037c-.025.022-3.136,2.756-3.158,2.73s-4.274-4.991-4.249-5.013L131.118.961h0a.034.034,0,0,1,.04,0l4.1,4.84a.226.226,0,0,1-.023.316" transform="translate(-105.275 0)" fill="#fff"/>
    <path id="Path_453" data-name="Path 453" d="M22.629,300.982a1.7,1.7,0,0,0-2.991-1.059l-2.327,2.721a1.712,1.712,0,0,0-.237.361l-.1.04a1.6,1.6,0,0,0-1.169-1.151c-3.091-.887-3.494-1.065-4.336-.99h-.009c-2.279.247-2.8.323-3.949.991a18.1,18.1,0,0,0-2.394,1.674l-.14-.164a.957.957,0,0,0-1.36-.1l-3.3,2.881a.953.953,0,0,0-.092,1.338l4.346,5.012a.9.9,0,0,0,1.261.106l.009-.008,3.285-2.871a.983.983,0,0,0,.1-1.376l-.129-.151.212-.185a2.407,2.407,0,0,1,2.264-.393l2.388.685a.471.471,0,0,0,.582-.329.478.478,0,0,0-.325-.589l-2.388-.685a3.334,3.334,0,0,0-3.137.589l-.212.185-1.815-2.127-.935-1.1a17.139,17.139,0,0,1,2.248-1.569c.977-.569,1.306-.623,3.575-.869.641-.056.995.1,3.992.958a.637.637,0,0,1,.508.448.915.915,0,0,1,.02.378.709.709,0,0,1-.115.259.4.4,0,0,1-.429.154c-.892-.124-3.016-.412-3.037-.414a.477.477,0,0,0-.125.946c.021,0,2.144.29,3.034.414a1.668,1.668,0,0,0,.23.016,1.37,1.37,0,0,0,1.287-.913l.688-.287s4.051-1.688,4.1-1.714a1.809,1.809,0,0,1,.5-.176c.758-.108,1.277.891.324,1.534-6.623,3.836-6.474,3.755-6.474,3.755a.48.48,0,0,0-.188.647.468.468,0,0,0,.64.19l6.526-3.786a1.75,1.75,0,0,0-.418-3.281m-17.364,10.9L.946,306.9l3.291-2.875a.021.021,0,0,1,.03,0l4.251,4.982c.022.025-3.228,2.849-3.253,2.871m15.086-11.336a.761.761,0,0,1,1.335.529L18.9,302.243Z" transform="translate(0 -280.292)" fill="#fff"/>
    <path id="Path_454" data-name="Path 454" d="M192.49,197.74a.47.47,0,0,0,.6.285.479.479,0,0,0,.281-.612,3.981,3.981,0,1,0,.064,2.529.478.478,0,0,0-.313-.6.47.47,0,0,0-.589.317,3.023,3.023,0,1,1-.049-1.923" transform="translate(-174.077 -182.41)" fill="#fff"/>
    <path id="Path_455" data-name="Path 455" d="M224.391,223.12h2.854v.006a4.484,4.484,0,0,1-.285.42H226.2a1.013,1.013,0,0,1,.214.453h.813c.01,0,.015.006.015.012q-.273.414-.279.414h-.528a1.185,1.185,0,0,1-.667.907,1.824,1.824,0,0,1-.8.2v.006a1.114,1.114,0,0,0,.187.249l1.409,1.72v.081c0,.008,0,.012-.015.012h-.62q-1.673-1.972-1.673-1.981v-.4l.006-.015a2.513,2.513,0,0,0,.347.021q.937,0,1.166-.615a.5.5,0,0,0,.036-.186h-1.7a.011.011,0,0,1-.012-.012q.282-.414.288-.414h1.347v-.006a.792.792,0,0,0-.448-.369,1.383,1.383,0,0,0-.427-.078h-.754v-.015q.273-.411.282-.411" transform="translate(-210.02 -208.931)" fill="#fff"/>
  </g>
</svg>
