<svg id="error-svgrepo-com" xmlns="http://www.w3.org/2000/svg" width="12.538" height="10.77" viewBox="0 0 12.538 10.77">
  <path id="error-svgrepo-com-2" data-name="error-svgrepo-com" d="M33.94,108.427a.134.134,0,0,0-.044-.045.131.131,0,0,0-.182.045l-5.474,9.148a.137.137,0,0,0-.019.07.134.134,0,0,0,.133.135H39.3a.131.131,0,0,0,.069-.02.137.137,0,0,0,.044-.186l-5.474-9.148Zm.566-.352,5.474,9.148a.82.82,0,0,1-.264,1.115.784.784,0,0,1-.414.119H28.353a.8.8,0,0,1-.8-.811.823.823,0,0,1,.116-.422l5.474-9.148a.786.786,0,0,1,1.093-.27A.8.8,0,0,1,34.505,108.075Zm-.679,8.462A.541.541,0,1,0,33.3,116,.535.535,0,0,0,33.827,116.537Zm0-5.812a.535.535,0,0,0-.53.541v2.973a.53.53,0,1,0,1.06,0v-2.973A.535.535,0,0,0,33.827,110.725Z" transform="translate(-27.558 -107.686)" fill="red"/>
</svg>
