<svg id="Component_35_1" data-name="Component 35 – 1" xmlns="http://www.w3.org/2000/svg" xmlns:xlink="http://www.w3.org/1999/xlink" width="26.52" height="26.531" viewBox="0 0 26.52 26.531">
  <defs>
    <clipPath id="clip-path">
      <rect id="Rectangle_626" data-name="Rectangle 626" width="26.52" height="26.531" fill="none"/>
    </clipPath>
  </defs>
  <g id="Group_366" data-name="Group 366" clip-path="url(#clip-path)">
    <path id="Path_466" data-name="Path 466" d="M1.766,13.571c-.2-.307-.412-.594-.6-.9a7.723,7.723,0,0,1-.833-1.913,8.429,8.429,0,0,1-.271-3.41,8.61,8.61,0,0,1,1-3.06,8.268,8.268,0,0,1,2.57-2.811A7.988,7.988,0,0,1,6.04.338,8.329,8.329,0,0,1,9.5.078a8.478,8.478,0,0,1,3.14,1.079,8.379,8.379,0,0,1,2.745,2.59,8.239,8.239,0,0,1,1.145,2.559,7.744,7.744,0,0,1,.241,2.435c-.023.358-.078.714-.1,1.071a.587.587,0,0,0,.063.329q1.5,2.449,3.014,4.888c.8,1.289,1.6,2.575,2.4,3.864q1.137,1.836,2.267,3.676c.224.364.455.724.673,1.091L25.8,24.8c.216.362.448.715.661,1.079a.425.425,0,0,1-.374.648q-1.6.006-3.2,0l-1.17,0h-.19q-9.18,0-18.36.005a.463.463,0,0,1-.494-.547,1.744,1.744,0,0,1,.2-.37Q3.985,23.806,5.1,22c.207-.091.206-.314.3-.474q.871-1.413,1.745-2.824.55-.888,1.1-1.775a.99.99,0,0,0,.052-.137,8.326,8.326,0,0,1-4.471-1.343A7.928,7.928,0,0,1,2.04,13.872ZM24.173,25.646H25.29l-.243-.421-.585-.934L14.588,8.339,3.876,25.645c.133.007.218.015.3.015H22.753ZM2.716,13.349a.582.582,0,0,1,.048.042,7.519,7.519,0,0,0,5.864,2.536.409.409,0,0,0,.386-.226c.539-.885,1.085-1.765,1.63-2.646q.938-1.516,1.878-3.031c.567-.916,1.132-1.833,1.7-2.746a.436.436,0,0,1,.728,0c.15.231.29.468.435.7l.48.769a7.4,7.4,0,0,0-4.2-7.131,7.484,7.484,0,0,0-8.6,1.469A7.337,7.337,0,0,0,.886,7.921,7.408,7.408,0,0,0,2.4,12.949Z" transform="translate(0 0)" fill="#fff"/>
    <path id="Path_467" data-name="Path 467" d="M89.973,85.049c0-.212-.01-.425,0-.635a.422.422,0,0,1,.456-.375c.283-.007.566,0,.849,0s.566,0,.849,0a.435.435,0,0,1,.483.494q0,3.918,0,7.835a.449.449,0,0,1-.5.5c-.536,0-1.073-.015-1.609.006a.5.5,0,0,1-.535-.528c.011-1.91.006-3.82.006-5.731,0-.318,0-.637,0-.955m1.778,2.79V87.279c0-.725,0-1.45,0-2.175,0-.165-.05-.218-.211-.2a2.846,2.846,0,0,1-.477,0c-.172-.015-.218.049-.218.218,0,1.173,0,2.346-.006,3.518q0,1.556,0,3.112c0,.249,0,.249.258.25.141,0,.284-.01.424,0,.18.016.232-.053.23-.23-.007-1.108,0-2.216,0-3.324" transform="translate(-76.704 -71.646)" fill="#fff"/>
    <path id="Path_468" data-name="Path 468" d="M92.653,151.389a1.32,1.32,0,0,1-2.639,0,1.32,1.32,0,0,1,2.639,0m-1.314.442a.454.454,0,0,0,.446-.45.453.453,0,1,0-.905.013.454.454,0,0,0,.459.437" transform="translate(-76.745 -127.947)" fill="#fff"/>
    <path id="Path_469" data-name="Path 469" d="M39.52,15.612c0,.978,0,1.956,0,2.934a.741.741,0,0,1-.237.576c-.826.813-1.64,1.637-2.458,2.457a.5.5,0,0,1-.616.142.432.432,0,0,1-.054-.706q1.18-1.178,2.362-2.355a.434.434,0,0,0,.138-.338q-.008-2.864,0-5.728a.711.711,0,0,1,.064-.3.393.393,0,0,1,.477-.2.387.387,0,0,1,.312.355,1.718,1.718,0,0,1,.009.212q0,1.476,0,2.952" transform="translate(-30.694 -10.299)" fill="#fff"/>
  </g>
</svg>
