<svg id="Folder" xmlns="http://www.w3.org/2000/svg" width="23.442" height="20.24" viewBox="0 0 23.442 20.24">
  <path id="Folder-2" data-name="Folder" d="M23.23,9.35a2.531,2.531,0,0,0-2.05-1.06h-.82V7.47a2.755,2.755,0,0,0-2.75-2.75H10.82a.917.917,0,0,1-.8-.47l-.55-.97A2.736,2.736,0,0,0,7.08,1.89H3A2.753,2.753,0,0,0,.25,4.63V19.38A2.755,2.755,0,0,0,3,22.13H17.34a3.651,3.651,0,0,0,3.46-2.47.914.914,0,0,0-1.73-.59,1.83,1.83,0,0,1-1.73,1.24H5.61a.035.035,0,0,1,.01-.02l3.32-9.67a.7.7,0,0,1,.65-.47H21.17a.683.683,0,0,1,.56.29.7.7,0,0,1,.09.63l-1.33,3.87a.914.914,0,1,0,1.73.59l1.33-3.87A2.555,2.555,0,0,0,23.23,9.35ZM7.21,10,3.89,19.67a.916.916,0,0,1-.87.62H3a.924.924,0,0,1-.92-.92V4.62A.915.915,0,0,1,3,3.71H7.07a.928.928,0,0,1,.8.46l.55.98a2.757,2.757,0,0,0,2.39,1.4H17.6a.918.918,0,0,1,.92.92v.82H9.6A2.53,2.53,0,0,0,7.21,10Z" transform="translate(-0.25 -1.89)" fill="#fff"/>
</svg>
