<svg id="Gallery-01" xmlns="http://www.w3.org/2000/svg" width="16.898" height="16.898" viewBox="0 0 16.898 16.898">
  <path id="Path_18" data-name="Path 18" d="M17.5,9.049v5.262A3.109,3.109,0,0,1,14.9,17.424c-.222,0-.371.074-.593.074H3.713A3.132,3.132,0,0,1,.6,14.385V3.713A3.132,3.132,0,0,1,3.713.6H14.385A3.132,3.132,0,0,1,17.5,3.713Q17.5,6.381,17.5,9.049Zm-7.337,2.742c.074-.148.148-.148.148-.222l2.3-2.3a.623.623,0,0,1,1.038,0l2.446,2.446.148.148V3.713a1.889,1.889,0,0,0-2-1.927H3.713a1.906,1.906,0,0,0-2,2V8.752h.074c.074-.074.074-.148.148-.148l2-2a.623.623,0,0,1,1.038,0l4.966,4.966C10.086,11.643,10.086,11.717,10.161,11.791Zm2.816,4.521L4.528,7.863H4.454c-.889.889-1.7,1.7-2.52,2.594a.272.272,0,0,0-.074.222v3.632a1.261,1.261,0,0,0,.074.519,1.92,1.92,0,0,0,1.927,1.482h9.116ZM11.05,12.606h0l3.557,3.557a.272.272,0,0,0,.222.074A1.847,1.847,0,0,0,16.238,14.9a4.558,4.558,0,0,0,.074-1.038c0-.148,0-.222-.148-.3l-2.89-2.89c-.074-.074-.074-.074-.148-.074C12.458,11.272,11.791,11.939,11.05,12.606Z" transform="translate(-0.6 -0.6)" fill="#6d6d6d"/>
  <path id="Path_19" data-name="Path 19" d="M14.4,5.975A2.072,2.072,0,0,1,16.475,3.9a2.137,2.137,0,0,1,2.149,2.075A2.072,2.072,0,0,1,16.549,8.05,2.044,2.044,0,0,1,14.4,5.975Zm1.26,0a.856.856,0,0,0,.889.889.889.889,0,1,0,0-1.779A.856.856,0,0,0,15.66,5.975Z" transform="translate(-4.172 -1.454)" fill="#6d6d6d"/>
</svg>
