<svg id="handshake-01" xmlns="http://www.w3.org/2000/svg" xmlns:xlink="http://www.w3.org/1999/xlink" width="30.438" height="22.575" viewBox="0 0 30.438 22.575">
  <defs>
    <clipPath id="clip-path">
      <rect id="Rectangle_671" data-name="Rectangle 671" width="30.438" height="22.575" fill="#6f6f6f"/>
    </clipPath>
  </defs>
  <g id="Group_337" clip-path="url(#clip-path)">
    <path id="Path_328" d="M20.536,7.011,23.58,3.967c.127-.127.507-.254.634,0h0c.127.127.38.254.507.38C26.5,6,28.146,7.772,29.794,9.42l.507.507h0c-.127,0-.127.127,0,.127v.127c-.127,0-.127.127-.254.254l-2.79,2.79c-.38.38-.507.38-.888,0a.238.238,0,0,0-.38,0,7.653,7.653,0,0,1-1.015,1.015,3.023,3.023,0,0,0-.761,1.4,9.154,9.154,0,0,1-1.141,2.536,11.434,11.434,0,0,1-1.141,1.268.393.393,0,0,0-.127.254h0a1.8,1.8,0,0,1,.254.761v.254a1.654,1.654,0,0,1-1.141,1.268c-.127,0-.127.127-.127.254a1.533,1.533,0,0,1-.38,1.268c-.127,0-.127,0-.127.127a1.382,1.382,0,0,1-1.776.254c-.127-.127-.254-.127-.38.127a1.613,1.613,0,0,1-1.141.888,1.885,1.885,0,0,1-1.141-.254h-.127c-.127-.127-.254-.254-.38,0a1.623,1.623,0,0,1-1.776.761.466.466,0,0,0-.38.127,1.723,1.723,0,0,1-2.029.254,1.56,1.56,0,0,1-.888-1.4c0-.127,0-.127-.254-.254A1.542,1.542,0,0,1,8.488,22.61c0-.38-.254-.38-.38-.38a1.674,1.674,0,0,1-1.4-1.776v-.38c.127,0,.127,0,0-.127a2.772,2.772,0,0,1,.38-.634,6.9,6.9,0,0,1-2.029-3.3c.127-.127,0-.127,0-.127a5.718,5.718,0,0,0-.38-1.4A2.256,2.256,0,0,0,3.8,13.479c-.127,0-.127,0-.127.127-.127,0-.127,0-.254.127-.254.254-.38.38-.761,0A19.53,19.53,0,0,0,.371,11.2a.273.273,0,0,1-.254-.254c-.127-.254-.127-.634.127-.761L6.586,3.84a.476.476,0,0,1,.761,0h0a30.323,30.323,0,0,1,2.917,2.79c.254.254.254.507-.127.888a14.468,14.468,0,0,0,1.4,1.4,1.9,1.9,0,0,0,1.649.127,3.62,3.62,0,0,1,1.649,0c.127,0,.254,0,.254-.127a4.164,4.164,0,0,1,3.678,0,1.349,1.349,0,0,0,1.522-.254l.38-.38.38-.38c0-.127-.254-.254-.254-.38-.254-.127-.254-.254-.254-.507.127.127.127,0,0,0M9.122,21.342h0a.8.8,0,0,0,.254-1.015.767.767,0,0,0-.761-.38.818.818,0,0,0-.761.761c0,.38.254.761.507.761h.127a.558.558,0,0,0,.634-.127M21.8,7.264l3.171,3.171a24.347,24.347,0,0,0,1.9,1.776h0l2.156-2.156c.127-.127,0-.127,0-.254L24.214,4.982a.238.238,0,0,0-.38,0l-1.9,1.9c-.254.254-.254.254-.127.38M3.288,12.845h0c.127-.127.254-.127.254-.254C5.064,11.2,6.459,9.8,7.981,8.279L9.249,7.011s.127-.127,0-.127c-.761-.634-1.4-1.4-2.156-2.029a.176.176,0,0,0-.254,0l-5.58,5.58a.443.443,0,0,0-.127.254c0,.254.38.634.761.761l1.4,1.4m13.951,1.9h0a3.325,3.325,0,0,0,1.9.254.463.463,0,0,1,.634.254h0c.127.254-.127.507-.38.634h0a1.431,1.431,0,0,1-1.015.127L21.3,18.932c.127.127.127,0,.254,0a5.615,5.615,0,0,0,1.522-1.9,8.806,8.806,0,0,0,.634-1.649,3.03,3.03,0,0,1,.888-1.649l1.268-1.268-3.8-3.932c-.127-.127-.127-.127-.254,0-.127.254-.38.38-.507.507a2.044,2.044,0,0,1-.888.507l-.507.127a1.5,1.5,0,0,1-1.268-.127,2.351,2.351,0,0,0-.888-.254c-.127,0-.127-.127-.254,0H16.351a.176.176,0,0,0-.254,0c0,.127-.127.127-.254.254a2.275,2.275,0,0,0-.888.634l-3.3,3.3a1,1,0,0,0,0,1.4c.127.127.254.127.254.254a1.216,1.216,0,0,0,1.141-.254l2.41-2.41c.127-.254.38-.254.634-.254.254.127.254.254.254.507-.127,0-.127,0-.127.127v.127c-.127.254-.38.38-.38.507s.38.38.507.507l.127.127c.127.254.38.38.761.634m-3.8-4.819a2.636,2.636,0,0,1-1.4.127,2.2,2.2,0,0,1-1.4-.761L9.629,8.279a.238.238,0,0,0-.38,0C7.727,9.928,6.205,11.45,4.556,12.972a8.732,8.732,0,0,1,1.4,1.649h0c.127.38.127.634.254,1.015a7.152,7.152,0,0,0,1.4,2.536c.38.507.761.888,1.4.761.127,0,.254.127.507.127A1.613,1.613,0,0,1,10.39,20.2v.127c0,.254.127.507.38.507a1.788,1.788,0,0,1,1.4,1.268.546.546,0,0,0,.507.507,1.642,1.642,0,0,1,1.268,1.649.466.466,0,0,0,.127.38.466.466,0,0,0,.38-.127.768.768,0,0,0,.127-1.015l-.127-.127-2.917-2.917a1.312,1.312,0,0,1-.127-.507c0-.254.254-.507.507-.38.127,0,.254,0,.254.127s0,.254.127.254c1.268,1.268,2.663,2.536,3.932,3.932.127.127.127.127.254.127.507.254.761.127.888-.127a.124.124,0,0,0,.127-.127,1.151,1.151,0,0,0-.38-.888l-3.678-3.678-.127-.127a.386.386,0,0,1,0-.507.961.961,0,0,1,.507-.254,1.751,1.751,0,0,1,.507.38L17.746,22.1l1.141,1.141a.613.613,0,0,0,.888,0c.127-.127.127-.127.127-.254a.61.61,0,0,0-.254-.761l-3.8-3.8L14.829,17.41a.659.659,0,0,1-.254-.507c0-.254.254-.38.634-.38a.443.443,0,0,1,.254.127l4.312,4.312.507.507a.653.653,0,0,0,.888-.888c0-.127-.127-.127-.127-.254-1.9-2.029-3.932-3.932-5.834-5.834a.238.238,0,0,0-.38,0c-.38.38-.888.761-1.268,1.141a1.761,1.761,0,0,1-1.268.634h-.38a2.059,2.059,0,0,1-1.141-.634,1.825,1.825,0,0,1-.507-1.9,2.761,2.761,0,0,1,.634-1.015,26.488,26.488,0,0,0,2.536-2.79c.127.127.254.127.127,0s0,0-.127,0M10.517,23.371c.507.127.888-.507.888-.888,0-.254-.507-.634-.634-.634-.507,0-.888.254-.888.761h0a.583.583,0,0,0,.634.761h0m1.776,1.776a.71.71,0,0,0,.761-.634h0a.71.71,0,0,0-.634-.761h-.127a.71.71,0,0,0-.761.634v.127a.822.822,0,0,0,.761.634" transform="translate(0.009 -3.587)" fill="#6f6f6f"/>
  </g>
</svg>
