<svg id="handshake-01" xmlns="http://www.w3.org/2000/svg" xmlns:xlink="http://www.w3.org/1999/xlink" width="35.781" height="26.538" viewBox="0 0 35.781 26.538">
  <defs>
    <clipPath id="clip-path">
      <rect id="Rectangle_671" data-name="Rectangle 671" width="35.781" height="26.538" fill="#e21d39"/>
    </clipPath>
  </defs>
  <g id="Group_337" clip-path="url(#clip-path)">
    <path id="Path_328" d="M24.135,7.6l3.578-3.578c.149-.149.6-.3.745,0h0c.149.149.447.3.6.447,2.087,1.938,4.025,4.025,5.963,5.963l.6.6h0c-.149,0-.149.149,0,.149v.149c-.149,0-.149.149-.3.3l-3.28,3.28c-.447.447-.6.447-1.044,0a.28.28,0,0,0-.447,0A9,9,0,0,1,29.353,16.1a3.554,3.554,0,0,0-.895,1.64,10.761,10.761,0,0,1-1.342,2.982,13.442,13.442,0,0,1-1.342,1.491.462.462,0,0,0-.149.3h0a2.119,2.119,0,0,1,.3.895v.3a1.944,1.944,0,0,1-1.342,1.491c-.149,0-.149.149-.149.3a1.8,1.8,0,0,1-.447,1.491c-.149,0-.149,0-.149.149a1.625,1.625,0,0,1-2.087.3c-.149-.149-.3-.149-.447.149a1.9,1.9,0,0,1-1.342,1.044,2.216,2.216,0,0,1-1.342-.3H18.47c-.149-.149-.3-.3-.447,0a1.908,1.908,0,0,1-2.087.895.548.548,0,0,0-.447.149,2.025,2.025,0,0,1-2.385.3,1.833,1.833,0,0,1-1.044-1.64c0-.149,0-.149-.3-.3a1.813,1.813,0,0,1-1.789-1.789c0-.447-.3-.447-.447-.447A1.967,1.967,0,0,1,7.885,23.4v-.447c.149,0,.149,0,0-.149a3.259,3.259,0,0,1,.447-.745,8.107,8.107,0,0,1-2.385-3.876c.149-.149,0-.149,0-.149A6.721,6.721,0,0,0,5.5,16.4,2.652,2.652,0,0,0,4.456,15.2c-.149,0-.149,0-.149.149-.149,0-.149,0-.3.149-.3.3-.447.447-.895,0A22.958,22.958,0,0,0,.43,12.521a.321.321,0,0,1-.3-.3c-.149-.3-.149-.745.149-.895L7.736,3.874a.559.559,0,0,1,.895,0h0a35.645,35.645,0,0,1,3.429,3.28c.3.3.3.6-.149,1.044a17.007,17.007,0,0,0,1.64,1.64,2.229,2.229,0,0,0,1.938.149,4.255,4.255,0,0,1,1.938,0c.149,0,.3,0,.3-.149a4.9,4.9,0,0,1,4.324,0,1.586,1.586,0,0,0,1.789-.3l.447-.447.447-.447c0-.149-.3-.3-.3-.447-.3-.149-.3-.3-.3-.6.149.149.149,0,0,0M10.717,24.448h0a.935.935,0,0,0,.3-1.193.9.9,0,0,0-.895-.447.962.962,0,0,0-.895.895c0,.447.3.895.6.895h.149a.656.656,0,0,0,.745-.149M25.626,7.9l3.727,3.727a28.622,28.622,0,0,0,2.236,2.087h0l2.534-2.534c.149-.149,0-.149,0-.3L28.459,5.215a.28.28,0,0,0-.447,0L25.775,7.452c-.3.3-.3.3-.149.447M3.859,14.459h0c.149-.149.3-.149.3-.3,1.789-1.64,3.429-3.28,5.218-5.069L10.867,7.6s.149-.149,0-.149c-.895-.745-1.64-1.64-2.534-2.385a.206.206,0,0,0-.3,0l-6.56,6.56a.521.521,0,0,0-.149.3c0,.3.447.745.895.895l1.64,1.64m16.4,2.236h0a3.909,3.909,0,0,0,2.236.3.545.545,0,0,1,.745.3h0c.149.3-.149.6-.447.745h0a1.682,1.682,0,0,1-1.193.149l3.429,3.429c.149.149.149,0,.3,0a6.6,6.6,0,0,0,1.789-2.236,10.352,10.352,0,0,0,.745-1.938A3.562,3.562,0,0,1,28.906,15.5L30.4,14.012,25.924,9.39c-.149-.149-.149-.149-.3,0-.149.3-.447.447-.6.6a2.4,2.4,0,0,1-1.044.6l-.6.149a1.764,1.764,0,0,1-1.491-.149,2.764,2.764,0,0,0-1.044-.3c-.149,0-.149-.149-.3,0H19.215a.206.206,0,0,0-.3,0c0,.149-.149.149-.3.3a2.674,2.674,0,0,0-1.044.745L13.7,15.2a1.17,1.17,0,0,0,0,1.64c.149.149.3.149.3.3a1.43,1.43,0,0,0,1.342-.3l2.833-2.833c.149-.3.447-.3.745-.3.3.149.3.3.3.6-.149,0-.149,0-.149.149v.149c-.149.3-.447.447-.447.6s.447.447.6.6l.149.149c.149.3.447.447.895.745M15.786,11.03a3.1,3.1,0,0,1-1.64.149,2.591,2.591,0,0,1-1.64-.895L11.314,9.092a.28.28,0,0,0-.447,0C9.077,11.03,7.288,12.819,5.35,14.608a10.265,10.265,0,0,1,1.64,1.938h0c.149.447.149.745.3,1.193a8.408,8.408,0,0,0,1.64,2.982c.447.6.895,1.044,1.64.895.149,0,.3.149.6.149a1.9,1.9,0,0,1,1.044,1.342v.149c0,.3.149.6.447.6a2.1,2.1,0,0,1,1.64,1.491.641.641,0,0,0,.6.6,1.931,1.931,0,0,1,1.491,1.938.548.548,0,0,0,.149.447.548.548,0,0,0,.447-.149.9.9,0,0,0,.149-1.193l-.149-.149L13.55,23.4a1.542,1.542,0,0,1-.149-.6c0-.3.3-.6.6-.447.149,0,.3,0,.3.149s0,.3.149.3c1.491,1.491,3.131,2.982,4.622,4.622.149.149.149.149.3.149.6.3.895.149,1.044-.149a.146.146,0,0,0,.149-.149,1.353,1.353,0,0,0-.447-1.044l-4.324-4.324-.149-.149a.453.453,0,0,1,0-.6,1.13,1.13,0,0,1,.6-.3,2.058,2.058,0,0,1,.6.447l4.025,4.025L22.2,26.684a.721.721,0,0,0,1.044,0c.149-.149.149-.149.149-.3a.717.717,0,0,0-.3-.895l-4.473-4.473-1.193-1.193a.775.775,0,0,1-.3-.6c0-.3.3-.447.745-.447a.521.521,0,0,1,.3.149L23.241,24l.6.6a.767.767,0,0,0,1.044-1.044c0-.149-.149-.149-.149-.3C22.5,20.87,20.11,18.633,17.874,16.4a.28.28,0,0,0-.447,0c-.447.447-1.044.895-1.491,1.342a2.07,2.07,0,0,1-1.491.745H14a2.42,2.42,0,0,1-1.342-.745,2.146,2.146,0,0,1-.6-2.236A3.246,3.246,0,0,1,12.8,14.31a31.138,31.138,0,0,0,2.982-3.28c.149.149.3.149.149,0s0,0-.149,0m-3.429,15.8c.6.149,1.044-.6,1.044-1.044,0-.3-.6-.745-.745-.745-.6,0-1.044.3-1.044.895h0a.685.685,0,0,0,.745.895h0m2.087,2.087a.835.835,0,0,0,.895-.745h0a.835.835,0,0,0-.745-.895h-.149a.835.835,0,0,0-.895.745v.149a.967.967,0,0,0,.895.745" transform="translate(0.017 -3.575)" fill="#e21d39"/>
  </g>
</svg>
