<svg id="vector" xmlns="http://www.w3.org/2000/svg" width="24" height="24" viewBox="0 0 24 24"><path fill="#6d6d6d" d="M22.13,12.72h-1.97V1.94c0,-0.47 -0.31,-0.79 -0.79,-0.79H3.09c-0.47,0 -0.79,0.31 -0.79,0.79v19.12c0,0.87 0.63,2.12 2.12,2.12H20.8c0,0 0,0 0.08,0c1.18,0 2.12,-0.87 2.12,-1.97v-7.63C22.92,13.12 22.61,12.72 22.13,12.72zM4.43,21.62c-0.39,0 -0.55,-0.24 -0.55,-0.55V2.73h14.79v10.78v7.55c0,0.16 0,0.31 0.08,0.55L4.43,21.62zM21.43,21.22h-0.08v0c0,0.39 -0.47,0.39 -0.55,0.39c-0.31,0 -0.55,-0.16 -0.55,-0.55V14.3h1.18L21.43,21.22L21.43,21.22z" id="path_0"/><path fill="#6d6d6d" d="M17.41,3.91H5.14c-0.47,0 -0.79,0.31 -0.79,0.79v3.38c0,0.47 0.31,0.79 0.79,0.79h12.28c0.47,0 0.79,-0.31 0.79,-0.79V4.7C18.2,4.23 17.81,3.91 17.41,3.91zM16.63,7.3H5.92V5.49h10.7L16.63,7.3L16.63,7.3z" id="path_1"/><path fill="#6d6d6d" d="M9.86,15.48H5.14c-0.47,0 -0.79,0.31 -0.79,0.79v2.75c0,0.47 0.31,0.79 0.79,0.79h4.8c0.47,0 0.79,-0.31 0.79,-0.79v-2.75C10.65,15.79 10.33,15.48 9.86,15.48zM9.15,18.23H9.07H5.92v-1.18h3.23V18.23z" id="path_2"/><path fill="#6d6d6d" d="M17.41,10.05H5.14c-0.47,0 -0.79,0.31 -0.79,0.79s0.31,0.79 0.79,0.79h12.28c0.47,0 0.79,-0.31 0.79,-0.79S17.81,10.05 17.41,10.05z" id="path_3"/><path fill="#6d6d6d" d="M17.41,12.72H5.14c-0.47,0 -0.79,0.31 -0.79,0.79s0.31,0.79 0.79,0.79h12.28c0.47,0 0.79,-0.31 0.79,-0.79C18.2,13.12 17.81,12.72 17.41,12.72z" id="path_4"/><path fill="#6d6d6d" d="M17.41,15.48h-4.8c-0.47,0 -0.79,0.31 -0.79,0.79c0,0.47 0.31,0.79 0.79,0.79h4.8c0.47,0 0.79,-0.31 0.79,-0.79C18.2,15.79 17.81,15.48 17.41,15.48z" id="path_5"/><path fill="#6d6d6d" d="M17.41,18.23h-4.8c-0.47,0 -0.79,0.31 -0.79,0.79s0.31,0.79 0.79,0.79h4.8c0.47,0 0.79,-0.31 0.79,-0.79S17.81,18.23 17.41,18.23z" id="path_6"/></svg>