<svg id="vector" xmlns="http://www.w3.org/2000/svg" width="24" height="24" viewBox="0 0 24 24"><path fill="#010101" d="M11.12,18.45c0.44,0.44 1.16,0.44 1.61,0c0,0 0,0 0,0L17,14.17c0.44,-0.44 0.44,-1.16 0,-1.61c-0.44,-0.44 -1.16,-0.44 -1.61,0l-2.34,2.34V2.51c0,-0.63 -0.51,-1.14 -1.14,-1.14s-1.14,0.51 -1.14,1.14V14.9l-2.34,-2.34c-0.44,-0.44 -1.16,-0.44 -1.61,0c-0.44,0.44 -0.44,1.16 0,1.61L11.12,18.45z" id="path_0"/><path fill="#010101" d="M21.76,11.21c-0.63,0 -1.14,0.51 -1.14,1.14v8.7H3.22v-8.7c0,-0.63 -0.51,-1.14 -1.14,-1.14s-1.14,0.51 -1.14,1.14v9.08c0,1.04 0.85,1.89 1.89,1.89H21c1.04,0 1.89,-0.85 1.89,-1.89v-9.08C22.89,11.72 22.38,11.21 21.76,11.21z" id="path_1"/></svg>