<svg id="vector" xmlns="http://www.w3.org/2000/svg" width="24" height="24" viewBox="0 0 24 24"><path fill="#000000" d="M23.8,11.5c-0.2,-0.3 -5.3,-7.2 -11.8,-7.2S0.4,11.2 0.2,11.5c-0.2,0.3 -0.2,0.7 0,0.9c0.2,0.3 5.3,7.2 11.8,7.2s11.6,-6.9 11.8,-7.2C24.1,12.2 24.1,11.8 23.8,11.5zM12,18.1c-4.8,0 -9,-4.6 -10.2,-6.1C3,10.5 7.2,5.9 12,5.9c4.8,0 9,4.6 10.2,6.1C21,13.5 16.8,18.1 12,18.1z" id="path_0"/><path fill="#000000" d="M12,7.3c-2.6,0 -4.7,2.1 -4.7,4.7s2.1,4.7 4.7,4.7s4.7,-2.1 4.7,-4.7S14.6,7.3 12,7.3zM12,15.2c-1.7,0 -3.2,-1.4 -3.2,-3.2s1.4,-3.2 3.2,-3.2s3.2,1.4 3.2,3.2S13.7,15.2 12,15.2z" id="path_1"/></svg>