<svg id="vector" xmlns="http://www.w3.org/2000/svg" width="24" height="24" viewBox="0 0 24 24"><path fill="#000000" d="M15.77,0.36H3.2v22.62h17.6V5.38L15.77,0.36zM15.77,3.02l2.36,2.36h-2.36V3.02zM18.91,21.09H5.09V2.24h9.43v4.4h4.4V21.09z" id="path_0"/><path fill="#000000" d="M9.49,9.15h7.54v1.26h-7.54z" id="path_1"/><path fill="#000000" d="M9.49,11.67h7.54v1.26h-7.54z" id="path_2"/><path fill="#000000" d="M9.49,14.18h7.54v1.26h-7.54z" id="path_3"/><path fill="#000000" d="M9.49,16.7h7.54v1.26h-7.54z" id="path_4"/><path fill="#000000" d="M6.97,9.15h1.26v1.26h-1.26z" id="path_5"/><path fill="#000000" d="M6.97,11.67h1.26v1.26h-1.26z" id="path_6"/><path fill="#000000" d="M6.97,14.18h1.26v1.26h-1.26z" id="path_7"/><path fill="#000000" d="M6.97,16.7h1.26v1.26h-1.26z" id="path_8"/></svg>