<svg id="vector" xmlns="http://www.w3.org/2000/svg" width="24" height="24" viewBox="0 0 24 24"><path fill="#000000" d="M23.91,16.12c0,-3.32 -2.24,-6.22 -5.39,-7.09c-0.2,-4.62 -4.02,-8.32 -8.69,-8.32c-4.79,0 -8.69,3.9 -8.69,8.69c0,1.56 0.42,3.08 1.21,4.42l-1.17,4.24l4.24,-1.17c1.23,0.73 2.61,1.13 4.04,1.2c0.87,3.15 3.77,5.39 7.09,5.39c1.32,0 2.61,-0.35 3.74,-1.02l3.58,0.99l-0.99,-3.58C23.56,18.74 23.91,17.45 23.91,16.12zM5.63,15.45l-2.54,0.7l0.7,-2.54l-0.16,-0.25c-0.75,-1.18 -1.15,-2.55 -1.15,-3.96c0,-4.06 3.3,-7.36 7.36,-7.36s7.36,3.3 7.36,7.36s-3.3,7.36 -7.36,7.36c-1.41,0 -2.78,-0.4 -3.96,-1.15L5.63,15.45zM21.97,21.54l-1.88,-0.52l-0.25,0.16c-0.98,0.63 -2.11,0.97 -3.28,0.97c-2.61,0 -4.9,-1.69 -5.71,-4.11c3.99,-0.46 7.17,-3.64 7.63,-7.63c2.42,0.81 4.1,3.1 4.1,5.71c0,1.17 -0.34,2.3 -0.97,3.28l-0.16,0.25L21.97,21.54z" id="path_0"/><path fill="#000000" d="M9.17,12.77h1.33v1.33H9.17V12.77z" id="path_1"/><path fill="#000000" d="M11.17,7.38c0,0.38 -0.15,0.73 -0.43,0.98L9.17,9.8v1.63h1.33v-1.04l1.13,-1.04c0.55,-0.5 0.87,-1.22 0.87,-1.97c0,-1.47 -1.2,-2.67 -2.67,-2.67s-2.67,1.2 -2.67,2.67H8.5c0,-0.74 0.6,-1.33 1.33,-1.33S11.17,6.65 11.17,7.38z" id="path_2"/></svg>