<svg id="vector" xmlns="http://www.w3.org/2000/svg" width="24" height="24" viewBox="0 0 24 24"><path fill="#6d6d6d" d="M18.03,9.75m-0.93,0a0.93,0.93 0,1 1,1.86 0a0.93,0.93 0,1 1,-1.86 0" id="path_0"/><path fill="#6d6d6d" d="M20.17,1.86h-1.21V0.93c0,-0.51 -0.42,-0.93 -0.93,-0.93S17.1,0.42 17.1,0.93v0.93h-4.22V0.93c0,-0.51 -0.42,-0.93 -0.93,-0.93s-0.93,0.42 -0.93,0.93v0.93H6.85V0.93C6.85,0.42 6.43,0 5.92,0S4.99,0.42 4.99,0.93v0.93H3.83c-2.05,0 -3.71,1.67 -3.71,3.71v14.48c0,2.05 1.67,3.71 3.71,3.71h7.1c0.51,0 0.93,-0.42 0.93,-0.93s-0.42,-0.93 -0.93,-0.93h-7.1c-1.02,0 -1.86,-0.83 -1.86,-1.86V5.57c0,-1.02 0.83,-1.86 1.86,-1.86h1.16v0.93c0,0.51 0.42,0.93 0.93,0.93s0.93,-0.42 0.93,-0.93V3.71h4.18v0.93c0,0.51 0.42,0.93 0.93,0.93c0.51,0 0.93,-0.42 0.93,-0.93V3.71h4.22v0.93c0,0.51 0.42,0.93 0.93,0.93s0.93,-0.42 0.93,-0.93V3.71h1.21c1.02,0 1.86,0.83 1.86,1.86v5.29c0,0.51 0.42,0.93 0.93,0.93s0.93,-0.42 0.93,-0.93V5.57C23.88,3.52 22.21,1.86 20.17,1.86z" id="path_1"/><path fill="#6d6d6d" d="M18.26,12.53c-3.1,0 -5.62,2.52 -5.62,5.62s2.52,5.62 5.62,5.62s5.62,-2.52 5.62,-5.62S21.36,12.53 18.26,12.53zM18.26,21.9c-2.07,0 -3.76,-1.69 -3.76,-3.76s1.69,-3.76 3.76,-3.76s3.76,1.69 3.76,3.76S20.34,21.9 18.26,21.9z" id="path_2"/><path fill="#6d6d6d" d="M19.61,17.22h-0.42v-0.97c0,-0.51 -0.42,-0.93 -0.93,-0.93c-0.51,0 -0.93,0.42 -0.93,0.93v1.9c0,0.51 0.42,0.93 0.93,0.93h1.35c0.51,0 0.93,-0.42 0.93,-0.93C20.54,17.63 20.12,17.22 19.61,17.22z" id="path_3"/><path fill="#6d6d6d" d="M14,9.75m-0.93,0a0.93,0.93 0,1 1,1.86 0a0.93,0.93 0,1 1,-1.86 0" id="path_4"/><path fill="#6d6d6d" d="M9.96,13.78m-0.93,0a0.93,0.93 0,1 1,1.86 0a0.93,0.93 0,1 1,-1.86 0" id="path_5"/><path fill="#6d6d6d" d="M5.92,9.75m-0.93,0a0.93,0.93 0,1 1,1.86 0a0.93,0.93 0,1 1,-1.86 0" id="path_6"/><path fill="#6d6d6d" d="M5.92,13.78m-0.93,0a0.93,0.93 0,1 1,1.86 0a0.93,0.93 0,1 1,-1.86 0" id="path_7"/><path fill="#6d6d6d" d="M5.92,17.82m-0.93,0a0.93,0.93 0,1 1,1.86 0a0.93,0.93 0,1 1,-1.86 0" id="path_8"/><path fill="#6d6d6d" d="M9.96,17.82m-0.93,0a0.93,0.93 0,1 1,1.86 0a0.93,0.93 0,1 1,-1.86 0" id="path_9"/><path fill="#6d6d6d" d="M9.96,9.75m-0.93,0a0.93,0.93 0,1 1,1.86 0a0.93,0.93 0,1 1,-1.86 0" id="path_10"/></svg>