<svg id="Icon_metro-bin" data-name="Icon metro-bin" xmlns="http://www.w3.org/2000/svg" width="17.241" height="21.22" viewBox="0 0 17.241 21.22">
  <path id="Icon_metro-bin-2" data-name="Icon metro-bin" d="M5.825,8.559V21.821a1.33,1.33,0,0,0,1.326,1.326H19.087a1.33,1.33,0,0,0,1.326-1.326V8.559H5.825ZM9.8,20.5H8.477V11.212H9.8Zm2.652,0H11.13V11.212h1.326Zm2.652,0H13.782V11.212h1.326Zm2.652,0H16.435V11.212h1.326ZM20.745,4.58h-4.31V2.923a1,1,0,0,0-.995-.995H10.8a1,1,0,0,0-.995.995V4.58H5.493a1,1,0,0,0-.995.995V7.233H21.74V5.575A1,1,0,0,0,20.745,4.58Zm-5.636,0H11.13V3.271h3.979V4.58Z" transform="translate(-4.499 -1.928)" fill="#fff"/>
</svg>
