<svg id="Icon_material-public" data-name="Icon material-public" xmlns="http://www.w3.org/2000/svg" width="13.42" height="13.42" viewBox="0 0 13.42 13.42">
  <path id="Icon_material-public-2" data-name="Icon material-public" d="M9.71,3a6.71,6.71,0,1,0,6.71,6.71A6.712,6.712,0,0,0,9.71,3ZM9.039,15.031a5.36,5.36,0,0,1-4.7-5.321,5.447,5.447,0,0,1,.141-1.2L7.7,11.723v.671a1.346,1.346,0,0,0,1.342,1.342Zm4.63-1.7a1.331,1.331,0,0,0-1.275-.933h-.671V10.381a.673.673,0,0,0-.671-.671H7.026V8.368H8.368A.673.673,0,0,0,9.039,7.7V6.355h1.342a1.346,1.346,0,0,0,1.342-1.342V4.738a5.356,5.356,0,0,1,1.946,8.589Z" transform="translate(-3 -3)" fill="#e21d39"/>
</svg>
