<svg id="Knowledge_Center" data-name="Knowledge Center" xmlns="http://www.w3.org/2000/svg" width="18.9" height="21.75" viewBox="0 0 18.9 21.75">
  <path id="Path_20" data-name="Path 20" d="M12.572.1V1.826H11.3V.1Z" transform="translate(-2.486 -0.1)" fill="#6d6d6d"/>
  <path id="Path_21" data-name="Path 21" d="M15.086,19.764H13.814a2.2,2.2,0,0,1-1,2,2.107,2.107,0,0,1-1.636.363,2.333,2.333,0,0,1-2.09-2.453H7.817V16.311A2.615,2.615,0,0,0,7,14.4a5.939,5.939,0,0,1-1.908-3.725,5.988,5.988,0,0,1,2-5.543A5.805,5.805,0,0,1,11.542,3.5a6.256,6.256,0,0,1,6.179,5.27,6.253,6.253,0,0,1-1.908,5.725A2.635,2.635,0,0,0,15,15.857V19.4A.546.546,0,0,1,15.086,19.764Zm-4.362-4.18h0v-2.09a.317.317,0,0,0-.091-.182A12.724,12.724,0,0,0,9.18,12.4C9.089,12.313,9,12.222,9,12.131V10.4H10.27v1c0,.091,0,.182.182.273l.818.545a.17.17,0,0,0,.273,0,8.381,8.381,0,0,1,.727-.454c.182-.091.182-.182.182-.363v-1h1.272v1.817a.317.317,0,0,1-.091.182c-.454.273-1,.636-1.454.909-.091.091-.182.182-.182.273v2h1.817A4.261,4.261,0,0,1,15.177,13.4,4.91,4.91,0,0,0,16.449,8.86a5.053,5.053,0,0,0-6.088-4A4.776,4.776,0,0,0,6.545,8.406a4.69,4.69,0,0,0,1.272,5.088,4.063,4.063,0,0,1,1.181,2,.089.089,0,0,0,.091.091ZM9.089,18.4h4.725V16.856H9.089Zm1.272,1.363a1.044,1.044,0,0,0,.545,1A.966.966,0,0,0,12,20.673a.923.923,0,0,0,.454-.909Z" transform="translate(-1.91 -0.41)" fill="#6d6d6d"/>
  <path id="Path_22" data-name="Path 22" d="M1.6,9.8H3.326v1.272H1.6Z" transform="translate(-1.6 -0.986)" fill="#6d6d6d"/>
  <path id="Path_23" data-name="Path 23" d="M20.5,11.072V9.8h1.726v1.272Z" transform="translate(-3.326 -0.986)" fill="#6d6d6d"/>
  <path id="Path_24" data-name="Path 24" d="M8.2,2.645a6.777,6.777,0,0,0-1.09.636c-.273-.454-.545-1-.909-1.545A6.777,6.777,0,0,0,7.29,1.1,13.679,13.679,0,0,0,8.2,2.645Z" transform="translate(-2.02 -0.191)" fill="#6d6d6d"/>
  <path id="Path_25" data-name="Path 25" d="M16.509,1.1c.363.182.727.454,1.09.636a13.679,13.679,0,0,1-.909,1.545c-.363-.182-.727-.454-1.09-.636A13.679,13.679,0,0,0,16.509,1.1Z" transform="translate(-2.879 -0.191)" fill="#6d6d6d"/>
  <path id="Path_26" data-name="Path 26" d="M4.145,6.7A13.679,13.679,0,0,1,2.6,5.79c.182-.363.454-.727.636-1.09.545.273,1,.545,1.545.818C4.6,5.972,4.326,6.336,4.145,6.7Z" transform="translate(-1.691 -0.52)" fill="#6d6d6d"/>
  <path id="Path_27" data-name="Path 27" d="M21.181,5.79a13.679,13.679,0,0,0-1.545.909c-.182-.363-.454-.727-.636-1.09A13.679,13.679,0,0,0,20.545,4.7C20.726,5.063,21,5.427,21.181,5.79Z" transform="translate(-3.189 -0.52)" fill="#6d6d6d"/>
</svg>
