<svg id="Like-01" xmlns="http://www.w3.org/2000/svg" width="16.267" height="16.267" viewBox="0 0 16.267 16.267">
  <path id="Path_1" data-name="Path 1" d="M16.674,11a2.051,2.051,0,0,0,.493-1.367,2.264,2.264,0,0,0-.423-1.162,1.809,1.809,0,0,0-.423-2.05A3.99,3.99,0,0,0,13.5,5.81c-.915.068-1.69.205-1.69.205h0a2.231,2.231,0,0,0-.563.137,5.8,5.8,0,0,1,.423-1.982c.493-1.435.493-2.529-.07-3.281A2.34,2.34,0,0,0,9.773,0a1.272,1.272,0,0,0-.7.273,2.293,2.293,0,0,0-.282,1.64c-.493,1.23-1.76,4.1-2.817,4.921A.068.068,0,0,0,5.9,6.9a2.979,2.979,0,0,0-.7,1.025,1.187,1.187,0,0,0-.7-.137H2.379A1.466,1.466,0,0,0,.9,9.227v5.468A1.466,1.466,0,0,0,2.379,16.13H4.491a1.254,1.254,0,0,0,.845-.273l.845.068c.141,0,2.324.273,4.648.273.423,0,.775.068,1.2.068a10.18,10.18,0,0,0,1.62-.137,3.277,3.277,0,0,0,2.183-1.3,1.814,1.814,0,0,0,.211-1.3,1.987,1.987,0,0,0,.775-1.777A2.055,2.055,0,0,0,16.674,11ZM2.449,15.1a.474.474,0,0,1-.493-.478V9.159a.474.474,0,0,1,.493-.478H4.562a.474.474,0,0,1,.493.478v5.468a.474.474,0,0,1-.493.478Zm13.309-4.511a.5.5,0,0,0-.07.547,1.382,1.382,0,0,1,.141.547,1.514,1.514,0,0,1-.634,1.162.556.556,0,0,0-.141.547,1.339,1.339,0,0,1-.07.889,2.35,2.35,0,0,1-1.549.889,9.8,9.8,0,0,1-2.535.068h-.07a21.518,21.518,0,0,1-4.507-.273h0L5.97,14.9V9.159a.844.844,0,0,0-.07-.41,2.7,2.7,0,0,1,.634-1.162c1.549-1.23,3.1-5.263,3.169-5.468V1.914c-.07-.41-.07-.82.07-.957a1.218,1.218,0,0,1,.986.478c.352.478.352,1.3-.07,2.461-.563,1.64-.563,2.6-.141,2.939a.815.815,0,0,0,.775.137c.211-.068.423-.068.634-.137h.07c1.056-.205,2.958-.342,3.662.205.563.478.141,1.162.141,1.23a.509.509,0,0,0,.07.615,1.261,1.261,0,0,1,.352.82A1.16,1.16,0,0,1,15.758,10.594Z" transform="translate(-0.9)" fill="#7b8191"/>
</svg>
