<svg id="My_Wallet-01" data-name="My Wallet-01" xmlns="http://www.w3.org/2000/svg" width="14.753" height="13.23" viewBox="0 0 14.753 13.23">
  <path id="Path_85" data-name="Path 85" d="M15.113,4.726v8a.18.18,0,0,0-.025.082,1.978,1.978,0,0,1-1.919,1.653q-5.433.009-10.865,0A1.97,1.97,0,0,1,.36,12.489V3.206A1.974,1.974,0,0,1,2.3,1.237q4.711-.009,9.422,0a1.976,1.976,0,0,1,1.919,1.7.181.181,0,0,0,.139.171,1.958,1.958,0,0,1,1.228,1.247C15.05,4.479,15.081,4.6,15.113,4.726Zm-.95,6.174H11.371c-.133,0-.266-.006-.405-.019a2.138,2.138,0,0,1,.279-4.261c.918-.006,1.836,0,2.754,0h.165a.61.61,0,0,0,.013-.076c0-.513.013-1.032,0-1.545a1.044,1.044,0,0,0-1.114-1.064H2.412A1.049,1.049,0,0,0,1.291,5.049v7.345a1.156,1.156,0,0,0,.095.488,1.056,1.056,0,0,0,1.064.64H13.125a1.026,1.026,0,0,0,1.026-.874C14.189,12.077,14.163,11.5,14.163,10.9ZM12.694,2.991c-.013-.044-.013-.076-.025-.108a1.072,1.072,0,0,0-1.1-.722H2.443a2.154,2.154,0,0,0-.285.019A1.039,1.039,0,0,0,1.31,3.3,2.649,2.649,0,0,1,2.88,3H12.5A1.781,1.781,0,0,1,12.694,2.991ZM14.17,7.563a.481.481,0,0,0-.089-.006H11.175a.936.936,0,0,0-.266.044,1.2,1.2,0,0,0,.31,2.355h2.824c.044,0,.082-.006.133-.006C14.17,9.152,14.17,8.361,14.17,7.563Z" transform="translate(-0.36 -1.233)" fill="#fff"/>
  <path id="Path_86" data-name="Path 86" d="M17.01,12.891a.473.473,0,0,1,.481-.481.486.486,0,0,1,.488.481.5.5,0,0,1-.494.494A.491.491,0,0,1,17.01,12.891Z" transform="translate(-6.468 -5.333)" fill="#fff"/>
</svg>
