<svg id="News-01" xmlns="http://www.w3.org/2000/svg" width="16.898" height="15.777" viewBox="0 0 16.898 15.777">
  <path id="Path_28" data-name="Path 28" d="M17.3,5.039V15.058a2.544,2.544,0,0,1-2.393,2.019H2.867A2.489,2.489,0,0,1,.4,14.609V1.823A.472.472,0,0,1,.923,1.3h11.59a.472.472,0,0,1,.523.523V4.739H16.7C17,4.665,17.149,4.814,17.3,5.039ZM1.372,2.272V14.46a1.453,1.453,0,0,0,1.57,1.57h9.5c0-.075,0-.075-.075-.075a2.7,2.7,0,0,1-.449-1.5V2.272ZM13.036,5.712h0v8.9a1.437,1.437,0,0,0,.3.9,1.406,1.406,0,0,0,1.271.6,1.573,1.573,0,0,0,1.72-1.72V5.712Z" transform="translate(-0.4 -1.3)" fill="#6d6d6d"/>
  <path id="Path_29" data-name="Path 29" d="M12.911,12.393v1.795a.511.511,0,0,1-.523.523H8.723a.511.511,0,0,1-.523-.523V10.523A.511.511,0,0,1,8.723,10h3.664a.511.511,0,0,1,.523.523C12.911,11.2,12.911,11.795,12.911,12.393Zm-1.047,1.346V11.047H9.172v2.692Z" transform="translate(-2.368 -3.495)" fill="#6d6d6d"/>
  <path id="Path_30" data-name="Path 30" d="M7.387,5.372H3.723A.494.494,0,0,1,3.2,4.923.478.478,0,0,1,3.574,4.4h7.477a.523.523,0,0,1,0,1.047C9.855,5.372,8.658,5.372,7.387,5.372Z" transform="translate(-1.106 -2.082)" fill="#6d6d6d"/>
  <path id="Path_31" data-name="Path 31" d="M7.487,7.175h3.664a.546.546,0,0,1,.523.449c0,.224-.15.523-.374.523H3.823a.523.523,0,1,1,0-1.047C5.02,7.175,6.216,7.175,7.487,7.175Z" transform="translate(-1.132 -2.763)" fill="#6d6d6d"/>
  <path id="Path_32" data-name="Path 32" d="M7.487,17.775h3.664a.494.494,0,0,1,.523.449.478.478,0,0,1-.374.523H3.823a.523.523,0,0,1,0-1.047C5.02,17.775,6.291,17.775,7.487,17.775Z" transform="translate(-1.132 -5.437)" fill="#6d6d6d"/>
  <path id="Path_33" data-name="Path 33" d="M4.571,12.172H3.823a.511.511,0,0,1-.523-.523c0-.3.224-.449.523-.449h1.57a.523.523,0,1,1,0,1.047A3.353,3.353,0,0,0,4.571,12.172Z" transform="translate(-1.132 -3.798)" fill="#6d6d6d"/>
  <path id="Path_34" data-name="Path 34" d="M4.546,14h.748a.511.511,0,0,1,.523.523c0,.3-.224.449-.523.523H3.723a.511.511,0,0,1-.523-.523c0-.3.224-.449.523-.523Z" transform="translate(-1.106 -4.504)" fill="#6d6d6d"/>
</svg>
