<svg xmlns="http://www.w3.org/2000/svg" width="18" height="22.032" viewBox="0 0 18 22.032">
  <path id="Notification_01" d="M20.235,18.03a3.355,3.355,0,0,1-1.073-1.418,15.863,15.863,0,0,1-1.121-6.476v-.029a6.253,6.253,0,0,0-3.8-5.671V2.952A2.493,2.493,0,0,0,11.71.5H11.5A2.493,2.493,0,0,0,8.97,2.952V4.447a6.239,6.239,0,0,0-3.8,5.69,15.863,15.863,0,0,1-1.121,6.476A3.534,3.534,0,0,1,2.974,18.03a.627.627,0,0,0-.354.718.682.682,0,0,0,.671.508H8.175a3.433,3.433,0,0,0,6.859,0h4.885a.671.671,0,0,0,.671-.508A.644.644,0,0,0,20.235,18.03ZM10.3,2.952a1.178,1.178,0,0,1,1.2-1.159h.211a1.178,1.178,0,0,1,1.2,1.159V4.025A6.463,6.463,0,0,0,11.6,3.9a7.239,7.239,0,0,0-1.3.125V2.952Zm1.3,18.287a2.076,2.076,0,0,1-2.1-1.983h4.2A2.076,2.076,0,0,1,11.6,21.239Zm2.682-3.276H4.813a6.529,6.529,0,0,0,.345-.594A15.932,15.932,0,0,0,6.5,10.146,5.036,5.036,0,0,1,11.6,5.194a5.028,5.028,0,0,1,5.1,4.952v.019a15.927,15.927,0,0,0,1.341,7.194,6.528,6.528,0,0,0,.345.594Z" transform="translate(-2.603 -0.5)" fill="#fff"/>
</svg>
