<svg id="Open_Ticket-01" data-name="Open Ticket-01" xmlns="http://www.w3.org/2000/svg" width="26.078" height="23.048" viewBox="0 0 26.078 23.048">
  <g id="Group_75" data-name="Group 75">
    <path id="Path_128" data-name="Path 128" d="M25.275,13.57A7.2,7.2,0,0,1,17.26,24.623a7.2,7.2,0,0,1-5-7.5c-.149.034-.264.057-.378.092-2.167.585-4.346,1.17-6.513,1.754a2.038,2.038,0,0,1-2.729-1.582Q1.609,13.587.612,9.821a2.018,2.018,0,0,1,1.5-2.614Q11.814,4.61,21.537,2a2.019,2.019,0,0,1,2.6,1.468q1.049,3.853,2.064,7.705a2,2,0,0,1-.837,2.3A.692.692,0,0,0,25.275,13.57Zm-5.848-3c.39.046.78.069,1.17.126a6.978,6.978,0,0,1,3.8,1.9.3.3,0,0,0,.459.023,1.04,1.04,0,0,0,.367-1.192c-.676-2.545-1.364-5.079-2.041-7.613a1.034,1.034,0,0,0-1.41-.826c-.745.195-1.491.4-2.236.608Q10.982,5.882,2.423,8.181a1.047,1.047,0,0,0-.837,1.433Q2.6,13.4,3.616,17.17A1.045,1.045,0,0,0,5.049,18q3.526-.946,7.074-1.88a.552.552,0,0,0,.436-.424A7.2,7.2,0,0,1,19.427,10.566Zm6.157,7.189a6.163,6.163,0,1,0-6.157,6.169A6.166,6.166,0,0,0,25.584,17.755Z" transform="translate(-0.521 -1.914)" fill="#fff"/>
    <path id="Path_129" data-name="Path 129" d="M3.86,13.291a1.059,1.059,0,0,1,.722-1.147C6.142,11.72,7.7,11.3,9.26,10.894a.987.987,0,0,1,1.192.7c.1.333.195.665.275,1.009a1,1,0,0,1-.745,1.25c-1.525.413-3.061.826-4.586,1.227a.941.941,0,0,1-1.135-.47A12.069,12.069,0,0,1,3.86,13.291Zm5.618-1.41c-1.536.413-3.061.826-4.609,1.238.092.333.172.642.264.975,1.548-.413,3.073-.826,4.609-1.238C9.65,12.511,9.57,12.2,9.478,11.88Z" transform="translate(-0.032 -0.603)" fill="#fff"/>
    <path id="Path_130" data-name="Path 130" d="M3.02,9.941a1.059,1.059,0,0,1,.722-1.147C5.3,8.37,6.861,7.945,8.42,7.544a.987.987,0,0,1,1.192.7c.1.333.195.665.275,1.009a1,1,0,0,1-.745,1.25c-1.525.413-3.061.826-4.586,1.227a.941.941,0,0,1-1.135-.47C3.238,10.778,3.123,10.262,3.02,9.941ZM8.65,8.53C7.1,8.943,5.588,9.344,4.04,9.769c.092.333.172.642.264.975C5.852,10.33,7.377,9.918,8.913,9.5,8.822,9.161,8.73,8.863,8.65,8.53Z" transform="translate(-0.155 -1.094)" fill="#fff"/>
  </g>
  <g id="Group_76" data-name="Group 76" transform="translate(15.053 10.624)">
    <path id="Path_131" data-name="Path 131" d="M18.775,13.026a1.228,1.228,0,0,0-1.02-1.089,1.286,1.286,0,0,0-1.513.952.885.885,0,0,0-.023.172v1.663H20.2a1.164,1.164,0,0,1,1.17,1.158v3.8a1.132,1.132,0,0,1-1.17,1.17H14.82a1.13,1.13,0,0,1-1.17-1.158v-3.8a1.13,1.13,0,0,1,1.17-1.158h.654V13.244a2,2,0,0,1,1.4-1.961c.149-.046.3-.069.447-.1H17.7a4.468,4.468,0,0,1,.527.138,1.982,1.982,0,0,1,1.319,1.766m-2.052,6.994h2.66c.3,0,.436-.149.436-.447V15.9a.4.4,0,0,0-.447-.447H14.831a.4.4,0,0,0-.447.447v3.715c0,.31.138.447.447.447C15.737,20.077,16.62,20.077,17.491,20.077Z" transform="translate(-13.65 -11.18)" fill="#fff"/>
    <path id="Path_132" data-name="Path 132" d="M16.72,17.6v-.378a.171.171,0,0,0-.046-.1.7.7,0,0,1-.206-.837.68.68,0,0,1,.768-.39.7.7,0,0,1,.562.665.669.669,0,0,1-.252.562.179.179,0,0,0-.069.138V18a.374.374,0,0,1-.344.367.407.407,0,0,1-.413-.424Z" transform="translate(-13.246 -10.492)" fill="#fff"/>
  </g>
</svg>
