<svg id="Untitled_design" data-name="Untitled design" xmlns="http://www.w3.org/2000/svg" xmlns:xlink="http://www.w3.org/1999/xlink" width="19.346" height="15.294" viewBox="0 0 19.346 15.294">
  <defs>
    <clipPath id="clip-path">
      <path id="Path_121" data-name="Path 121" d="M79.41,87.266H98.757V102.56H79.41Zm0,0" transform="translate(0 0)" fill="#383853"/>
    </clipPath>
  </defs>
  <g id="Untitled_design-2" data-name="Untitled design" transform="translate(-79.41 -87.266)" clip-path="url(#clip-path)">
    <path id="Path_120" data-name="Path 120" d="M95.943,89.837V88.724a1.613,1.613,0,0,0-1.612-1.611H83.851a1.613,1.613,0,0,0-1.612,1.611v1.113a4.422,4.422,0,0,0,0,8.244v1.113a1.613,1.613,0,0,0,1.612,1.611H87.68l1.088,1.449a.4.4,0,0,0,.645,0L90.5,100.8H94.33a1.613,1.613,0,0,0,1.612-1.611V98.08a4.421,4.421,0,0,0,0-8.244ZM80.224,93.958a3.627,3.627,0,1,1,3.627,3.624A3.63,3.63,0,0,1,80.224,93.958Zm14.913,5.235a.807.807,0,0,1-.806.805H90.3a.4.4,0,0,0-.322.161l-.887,1.181L88.2,100.16a.4.4,0,0,0-.322-.161h-4.03a.807.807,0,0,1-.806-.805v-.883a4.429,4.429,0,1,0,0-8.7v-.882a.806.806,0,0,1,.806-.805H94.33a.807.807,0,0,1,.806.805v.882a4.429,4.429,0,1,0,0,8.7Zm-.806-1.611a3.624,3.624,0,1,1,3.627-3.624A3.63,3.63,0,0,1,94.33,97.582Zm-9.152-1.729a.4.4,0,1,0,.57-.57l-1.327-1.326,1.327-1.326a.4.4,0,0,0-.57-.569l-1.327,1.326-1.327-1.326a.4.4,0,0,0-.57.569l1.327,1.326-1.327,1.326a.4.4,0,0,0,.57.57l1.327-1.326Zm10.845-3.748-2.139,2.85L92.6,93.674a.4.4,0,0,0-.57.569l1.612,1.611a.4.4,0,0,0,.285.118h.029a.4.4,0,0,0,.294-.16l2.418-3.221a.4.4,0,0,0-.645-.483Zm0,0" transform="translate(-0.007 0.145)" fill="#383853"/>
  </g>
</svg>
