<svg id="receipt_long_black_24dp_1_" data-name="receipt_long_black_24dp (1)" xmlns="http://www.w3.org/2000/svg" width="33.583" height="33.583" viewBox="0 0 33.583 33.583">
  <path id="Path_282" data-name="Path 282" d="M0,0H33.583V33.583H0Z" fill="none"/>
  <g id="Group_146" data-name="Group 146" transform="translate(4.198 2.799)">
    <path id="Path_283" data-name="Path 283" d="M26.088,4.1,23.989,2l-2.1,2.1L19.791,2l-2.1,2.1L15.593,2l-2.1,2.1L11.4,2,9.3,4.1,7.2,2V21.59H3v4.2a4.192,4.192,0,0,0,4.2,4.2H23.989a4.192,4.192,0,0,0,4.2-4.2V2Zm-6.3,23.088H7.2a1.4,1.4,0,0,1-1.4-1.4v-1.4H19.791Zm5.6-1.4a1.4,1.4,0,1,1-2.8,0v-4.2H10V6.2H25.388Z" transform="translate(-3 -2)" fill="#20589a"/>
    <rect id="Rectangle_468" data-name="Rectangle 468" width="8.396" height="2.519" transform="translate(8.396 7.277)" fill="#20589a"/>
    <rect id="Rectangle_469" data-name="Rectangle 469" width="2.519" height="2.519" transform="translate(18.47 7.277)" fill="#20589a"/>
    <rect id="Rectangle_470" data-name="Rectangle 470" width="8.396" height="2.519" transform="translate(8.396 11.474)" fill="#20589a"/>
    <rect id="Rectangle_471" data-name="Rectangle 471" width="2.519" height="2.519" transform="translate(18.47 11.474)" fill="#20589a"/>
  </g>
</svg>
