<svg id="Component_34_1" data-name="Component 34 – 1" xmlns="http://www.w3.org/2000/svg" xmlns:xlink="http://www.w3.org/1999/xlink" width="32.021" height="32.255" viewBox="0 0 32.021 32.255">
  <defs>
    <clipPath id="clip-path">
      <rect id="Rectangle_624" data-name="Rectangle 624" width="32.021" height="32.255" fill="none"/>
    </clipPath>
  </defs>
  <g id="Group_364" data-name="Group 364" clip-path="url(#clip-path)">
    <path id="Path_456" data-name="Path 456" d="M57.851,51.491A6.8,6.8,0,0,1,55.289,57a6.714,6.714,0,0,1-4.924,1.623,7.15,7.15,0,1,1,7.486-7.133m-7.077-6.053a6.049,6.049,0,1,0,6.032,6.076,6.022,6.022,0,0,0-6.032-6.076" transform="translate(-32.933 -33.487)" fill="#fff"/>
    <path id="Path_457" data-name="Path 457" d="M58.044,3.543a3.545,3.545,0,1,1,7.089.032,3.545,3.545,0,0,1-7.089-.032m5.917.027A2.371,2.371,0,0,0,61.6,1.154,2.4,2.4,0,1,0,63.962,3.57" transform="translate(-43.858 0)" fill="#fff"/>
    <path id="Path_458" data-name="Path 458" d="M103.028,16.809A3.55,3.55,0,1,1,99.5,20.425a3.525,3.525,0,0,1,3.524-3.616m0,5.933a2.381,2.381,0,0,0,2.418-2.372,2.4,2.4,0,1,0-4.8-.031,2.37,2.37,0,0,0,2.379,2.4" transform="translate(-75.183 -12.696)" fill="#fff"/>
    <path id="Path_459" data-name="Path 459" d="M105.525,102.805A3.55,3.55,0,1,1,102,106.421a3.525,3.525,0,0,1,3.524-3.616m0,5.933a2.381,2.381,0,0,0,2.418-2.373,2.4,2.4,0,1,0-4.8-.031,2.37,2.37,0,0,0,2.379,2.4" transform="translate(-77.07 -77.65)" fill="#fff"/>
    <path id="Path_460" data-name="Path 460" d="M3.525,74.253a3.55,3.55,0,1,1,.024,7.1,3.55,3.55,0,0,1-.024-7.1m0,5.933a2.381,2.381,0,0,0,2.418-2.372,2.4,2.4,0,1,0-4.8-.031,2.371,2.371,0,0,0,2.379,2.4" transform="translate(0 -56.084)" fill="#fff"/>
    <path id="Path_461" data-name="Path 461" d="M54.457,90.246,55.912,91.8l-.819.762-.861-.822c-.4.289-.782.585-1.183.851a8.03,8.03,0,0,1-3.167,1.269,8.939,8.939,0,0,1-9.6-4.5c-.082-.138-.114-.26.1-.331a3.989,3.989,0,0,0,.535-.269,8.2,8.2,0,0,0,13.541,1.486" transform="translate(-30.387 -67.041)" fill="#fff"/>
    <path id="Path_462" data-name="Path 462" d="M39.392,38.173c.06.219.133.44.175.667.01.053-.075.165-.136.184a8.007,8.007,0,0,0-4.033,2.8,7.915,7.915,0,0,0-1.7,5.169,7.138,7.138,0,0,0,.361,2.245c.078.216.026.318-.227.373-.579.127-1.147.3-1.754.465-.1-.345-.2-.675-.283-1.009-.009-.036.095-.13.16-.15.261-.079.525-.144.791-.205.182-.042.238-.122.219-.327a14.62,14.62,0,0,1-.113-1.985,8.781,8.781,0,0,1,3.388-6.654,9.119,9.119,0,0,1,3.006-1.57.579.579,0,0,1,.144,0" transform="translate(-24.025 -28.829)" fill="#fff"/>
    <path id="Path_463" data-name="Path 463" d="M96.12,53.9c1.992-3.947,1.45-7.448-1.672-10.577.226-.236.468-.5.717-.748s.5-.5.774-.762l.766.873-.909.763c.308.415.558.733.788,1.065a8.731,8.731,0,0,1,1.435,3.632,8.933,8.933,0,0,1-1.089,5.974c-.1.169-.161.216-.325.088a5.61,5.61,0,0,0-.485-.309" transform="translate(-71.364 -31.582)" fill="#fff"/>
    <path id="Path_464" data-name="Path 464" d="M71.511,31.606V32.85a9.2,9.2,0,0,1,4.305,1.429c-.349.739-.344.73-1.049.374A8.014,8.014,0,0,0,71,33.72c-.195,0-.389,0-.61,0V31.606Z" transform="translate(-53.188 -23.872)" fill="#fff"/>
    <path id="Path_465" data-name="Path 465" d="M63.244,59.424H67.9v.01a7.235,7.235,0,0,1-.464.678H66.189a1.628,1.628,0,0,1,.348.731h1.325c.016,0,.024.01.024.019q-.445.668-.455.668h-.861a1.977,1.977,0,0,1-.329.828,2.022,2.022,0,0,1-.759.634,3,3,0,0,1-1.3.324v.01a1.792,1.792,0,0,0,.3.4l2.3,2.774v.131c0,.013-.008.02-.024.02h-1.01q-2.728-3.181-2.728-3.2v-.644l.01-.024a4.142,4.142,0,0,0,.566.034q1.528,0,1.9-.993a.8.8,0,0,0,.058-.3H62.794a.017.017,0,0,1-.019-.019q.459-.668.469-.668h2.2v-.01a1.288,1.288,0,0,0-.73-.6,2.277,2.277,0,0,0-.7-.126H62.785v-.024q.445-.663.459-.663" transform="translate(-47.432 -44.884)" fill="#fff"/>
  </g>
</svg>
