<svg id="Rejected_Claims" data-name="Rejected Claims" xmlns="http://www.w3.org/2000/svg" width="26" height="26" viewBox="0 0 26 26">
  <path id="Path_5" data-name="Path 5" d="M0,0H26V26H0Z" fill="none" opacity="0.87"/>
  <path id="Path_6" data-name="Path 6" d="M12.973,2a10.963,10.963,0,1,0,7.762,3.211A10.973,10.973,0,0,0,12.973,2Zm0,19.751a8.778,8.778,0,1,1,8.778-8.778A8.778,8.778,0,0,1,12.973,21.751Zm3.94-14.264-3.94,3.94L9.037,7.487l-1.55,1.55,3.94,3.94-3.94,3.936,1.55,1.544,3.94-3.94,3.936,3.94,1.544-1.544-3.94-3.94,3.94-3.936Z" transform="translate(0.027 0.027)" fill="#fff"/>
</svg>
