<svg id="Rewards-01" xmlns="http://www.w3.org/2000/svg" width="22" height="22" viewBox="0 0 22 22">
  <g id="Group_9" transform="translate(0 12.18)">
    <g id="Group_8">
      <path id="Path_124" d="M21.736,13.18h-.01a1.653,1.653,0,0,0-1.129.44l-3.972,3.64a1.092,1.092,0,0,1-.746.29H10.3a.73.73,0,1,1,0-1.46h3.851a1.455,1.455,0,1,0,.071-2.91H8.175a4.821,4.821,0,0,0-2.531.72l-1.3.81v-.44H1.41V23H4.344v-.73h7.733a5.9,5.9,0,0,0,.726-.05l3.015-.46a4.767,4.767,0,0,0,2.642-1.33L22.926,16a1.6,1.6,0,0,0,.484-1.17,1.669,1.669,0,0,0-1.684-1.65ZM3.618,22.27H2.156V15H3.618Zm18.793-6.79h0l-4.466,4.43a3.985,3.985,0,0,1-2.238,1.12l-3.015.46a4.25,4.25,0,0,1-.615.05H4.354V15.56l1.694-1.05a4.046,4.046,0,0,1,2.137-.61h5.979a.73.73,0,1,1,0,1.46H10.3a1.455,1.455,0,0,0,0,2.91h5.576a1.815,1.815,0,0,0,1.24-.48l3.972-3.64a.934.934,0,0,1,.655-.24.918.918,0,0,1,.655,1.57h0Z" transform="translate(-1.41 -13.18)" fill="#6d6d6d"/>
    </g>
  </g>
  <g id="Group_11" transform="translate(5.57)">
    <g id="Group_10">
      <path id="Path_125" d="M17.71,4.96a.38.38,0,0,0-.29-.15H14.03l-1.36-3.4a.353.353,0,0,0-.47-.2.357.357,0,0,0-.2.2l-1.36,3.4H7.25a.359.359,0,0,0-.36.36.37.37,0,0,0,.14.29L9.72,7.48,8.36,11.23a.364.364,0,0,0,.57.41l3.4-2.72,3.04,2.71a.363.363,0,0,0,.51-.03.378.378,0,0,0,.08-.34L14.93,7.5l2.71-2.03a.365.365,0,0,0,.07-.51h0ZM14.29,7.07a.362.362,0,0,0-.13.39l.77,2.82L12.57,8.19a.363.363,0,0,0-.47-.01l-2.63,2.1L10.48,7.5a.365.365,0,0,0-.13-.42L8.31,5.55h2.55a.369.369,0,0,0,.34-.23l1.12-2.79,1.12,2.79a.369.369,0,0,0,.34.23h2.55L14.29,7.08Z" transform="translate(-6.89 -1.181)" fill="#6d6d6d"/>
    </g>
  </g>
  <g id="Group_21" transform="translate(10.57 8.811)">
    <g id="Group_20">
      <rect id="Rectangle_353" width="0.87" height="2.62" fill="#6d6d6d"/>
    </g>
  </g>
</svg>
