<svg id="Component_113_1" data-name="Component 113 – 1" xmlns="http://www.w3.org/2000/svg" xmlns:xlink="http://www.w3.org/1999/xlink" width="21.312" height="21.314" viewBox="0 0 21.312 21.314">
  <defs>
    <clipPath id="clip-path">
      <rect id="Rectangle_14" data-name="Rectangle 14" width="21.312" height="21.314" fill="#fff"/>
    </clipPath>
  </defs>
  <g id="Group_6" data-name="Group 6" clip-path="url(#clip-path)">
    <path id="Path_123" data-name="Path 123" d="M21.312.791c-.3.747-.613,1.493-.912,2.242q-3.549,8.87-7.1,17.738a1.056,1.056,0,0,1-.36.456.57.57,0,0,1-.772-.175,1.687,1.687,0,0,1-.141-.253q-1.83-3.772-3.657-7.546a.62.62,0,0,0-.31-.31Q4.274,11.115.494,9.277a1.161,1.161,0,0,1-.311-.2A.624.624,0,0,1,.461,8.039c.608-.249,1.22-.488,1.83-.732L20.319.093c.069-.028.135-.062.2-.093h.333a.944.944,0,0,1,.458.458Zm-3.3,1.58L2.182,8.7l6.395,3.1L18.01,2.371m-5.4,16.758c2.12-5.3,4.224-10.558,6.333-15.832L9.507,12.733l3.1,6.4" transform="translate(0 0)" fill="#fff"/>
  </g>
</svg>
