<svg id="Total_No.of_Tickets-01" data-name="Total No.of Tickets-01" xmlns="http://www.w3.org/2000/svg" width="27.015" height="17.973" viewBox="0 0 27.015 17.973">
  <path id="Path_137" data-name="Path 137" d="M5.592,22.474a2.136,2.136,0,0,1-2.859-1.658C2.023,18.173,1.315,15.542.606,12.9A2.1,2.1,0,0,1,2.18,10.172Q12.362,7.432,22.544,4.705a2.116,2.116,0,0,1,2.727,1.538q1.1,4.037,2.163,8.074a2.1,2.1,0,0,1-.877,2.415.6.6,0,0,0-.1.084M12.824,20.54c-.156.036-.276.06-.4.1M26,15.83a1.09,1.09,0,0,0,.384-1.249c-.709-2.667-1.43-5.322-2.139-7.977a1.083,1.083,0,0,0-1.478-.865c-.781.2-1.562.42-2.343.637Q11.473,8.772,2.5,11.181a1.1,1.1,0,0,0-.877,1.5Q2.69,16.647,3.754,20.6a1.1,1.1,0,0,0,1.5.865q3.694-.991,7.413-1.97" transform="translate(-0.511 -4.614)" fill="#fff"/>
  <path id="Path_138" data-name="Path 138" d="M3.86,16.107a1.11,1.11,0,0,1,.757-1.2c1.634-.445,3.268-.889,4.9-1.31a1.034,1.034,0,0,1,1.249.733c.108.348.2.7.288,1.057a1.051,1.051,0,0,1-.781,1.31c-1.6.433-3.208.865-4.806,1.286a.986.986,0,0,1-1.189-.493A12.647,12.647,0,0,1,3.86,16.107Zm5.887-1.478c-1.61.433-3.208.865-4.83,1.3.1.348.18.673.276,1.021,1.622-.433,3.22-.865,4.83-1.3C9.927,15.29,9.843,14.977,9.747,14.629Z" transform="translate(0.163 -2.812)" fill="#fff"/>
  <path id="Path_139" data-name="Path 139" d="M3.02,12.757a1.11,1.11,0,0,1,.757-1.2c1.634-.445,3.268-.889,4.9-1.31a1.034,1.034,0,0,1,1.249.733c.108.348.2.7.288,1.057a1.051,1.051,0,0,1-.781,1.31c-1.6.433-3.208.865-4.806,1.286a.986.986,0,0,1-1.189-.493C3.248,13.634,3.128,13.093,3.02,12.757Zm5.9-1.478c-1.61.433-3.208.865-4.83,1.3.1.348.18.673.276,1.021,1.622-.433,3.22-.865,4.83-1.3C9.1,11.94,9,11.627,8.919,11.279Z" transform="translate(-0.006 -3.487)" fill="#fff"/>
</svg>
