<svg id="Untitled-2-01" xmlns="http://www.w3.org/2000/svg" width="24.588" height="24.459" viewBox="0 0 24.588 24.459">
  <path id="Path_484" data-name="Path 484" d="M2.9,19.67a.475.475,0,0,0,.129-.388,3.164,3.164,0,0,1,1.165-1.424,9.844,9.844,0,0,1,2.718-1.035,5.822,5.822,0,0,1,3.624.518c.259.129.647.259.906.388a2.434,2.434,0,0,1,1.424,2.459.97.97,0,0,1-.129.647,1.243,1.243,0,0,1-1.165.906H4.194A1.407,1.407,0,0,1,2.9,20.835v-.129C2.9,20.447,2.9,20.058,2.9,19.67Zm4.918.906h3.365c.518,0,.518.129.518-.518a1.261,1.261,0,0,0-.518-1.165,8.167,8.167,0,0,0-2.976-1.035,5.72,5.72,0,0,0-3.235.776,1.665,1.665,0,0,0-1.035,1.682c0,.259,0,.259.259.259Z" transform="translate(-2.9 2.718)" fill="#fff"/>
  <path id="Path_485" data-name="Path 485" d="M13.316,1.7c.259.129.518.129.776.259A2.776,2.776,0,1,1,10.21,4.935a2.647,2.647,0,0,1,2.2-3.106h.129A1.641,1.641,0,0,1,13.316,1.7Zm-.388,4.529A1.713,1.713,0,0,0,14.61,4.547a1.682,1.682,0,1,0-3.365,0A1.713,1.713,0,0,0,12.928,6.229Z" transform="translate(-0.763 -1.7)" fill="#fff"/>
  <path id="Path_486" data-name="Path 486" d="M13.418,11.423H9.794A1.223,1.223,0,0,1,8.5,10.129,2.7,2.7,0,0,1,9.406,7.8a3.244,3.244,0,0,1,.906-.518,6.335,6.335,0,0,1,3.494-.776A7.677,7.677,0,0,1,17.559,7.8a2.64,2.64,0,0,1,1.035,1.941v.776a1.243,1.243,0,0,1-1.165.906Zm0-1.165h3.365c.518,0,.518.129.518-.518a1.262,1.262,0,0,0-.518-1.165,7.555,7.555,0,0,0-2.847-1.035,5.851,5.851,0,0,0-3.624.906,1.725,1.725,0,0,0-.647.776A1.641,1.641,0,0,0,9.535,10c0,.259,0,.259.259.259Z" transform="translate(-1.253 -0.294)" fill="#fff"/>
  <path id="Path_487" data-name="Path 487" d="M19.025,21.733H15.4a1.2,1.2,0,0,1-1.294-1.165,2.55,2.55,0,0,1,1.035-2.588,6.015,6.015,0,0,1,2.976-1.165,7.36,7.36,0,0,1,4.918,1.165A2.4,2.4,0,0,1,24.2,19.921v.906a1.243,1.243,0,0,1-1.165.906Zm0-1.165h3.624c.129,0,.259,0,.259-.129a1.665,1.665,0,0,0-.518-1.553,5.266,5.266,0,0,0-3.106-1.035,5.565,5.565,0,0,0-3.494,1.035,1.01,1.01,0,0,0-.518.518,2.2,2.2,0,0,0-.129.906c0,.259.129.259.259.259Z" transform="translate(0.387 2.726)" fill="#fff"/>
  <path id="Path_488" data-name="Path 488" d="M10.165,14.82a2.872,2.872,0,0,1-2.847,2.847A2.734,2.734,0,0,1,4.6,14.949,2.872,2.872,0,0,1,7.447,12.1,2.652,2.652,0,0,1,10.165,14.82ZM7.318,13.137A1.682,1.682,0,1,0,9,14.82,1.713,1.713,0,0,0,7.318,13.137Z" transform="translate(-2.4 1.357)" fill="#fff"/>
  <path id="Path_489" data-name="Path 489" d="M18.549,12a2.685,2.685,0,0,1,2.718,2.847,2.763,2.763,0,0,1-2.847,2.718A2.685,2.685,0,0,1,15.7,14.718,2.849,2.849,0,0,1,18.549,12Zm-1.682,2.847a1.682,1.682,0,1,0,1.682-1.682A1.631,1.631,0,0,0,16.867,14.847Z" transform="translate(0.862 1.33)" fill="#fff"/>
  <path id="Path_490" data-name="Path 490" d="M13.614,13.171v1.424a.475.475,0,0,0,.129.388c.776.647,1.553,1.165,2.2,1.812l.129.129a.61.61,0,0,1,.129.776.485.485,0,0,1-.776,0c-.776-.647-1.424-1.165-2.2-1.812a.243.243,0,0,0-.388,0,24.88,24.88,0,0,1-2.2,1.682.625.625,0,0,1-.906,0,.639.639,0,0,1,.129-.906,28.425,28.425,0,0,1,2.329-1.812.475.475,0,0,0,.129-.388V11.747a.592.592,0,0,1,.518-.647.611.611,0,0,1,.647.647A5.8,5.8,0,0,1,13.614,13.171Z" transform="translate(-0.932 1.065)" fill="#fff"/>
</svg>
