<svg id="pending" xmlns="http://www.w3.org/2000/svg" width="27.588" height="24.631" viewBox="0 0 27.588 24.631">
  <g id="Group_632" data-name="Group 632">
    <path id="Path_646" data-name="Path 646" d="M26.815,14.321a7.569,7.569,0,0,1-.364,9.225,7.456,7.456,0,0,1-8.133,2.428,7.163,7.163,0,0,1-4.006-3.035A7.836,7.836,0,0,1,13.1,17.962h-.364L5.816,19.783a2.184,2.184,0,0,1-2.913-1.7L.718,10.072A2.118,2.118,0,0,1,2.3,7.281C9.094,5.46,16.012,3.639,22.81,1.818A2.118,2.118,0,0,1,25.6,3.4c.728,2.67,1.457,5.462,2.185,8.133a2.131,2.131,0,0,1-.85,2.428h0Zm-6.19-3.156a4.129,4.129,0,0,1,1.214.121,7.105,7.105,0,0,1,4.006,2.063c.243.121.364.121.486,0a1.1,1.1,0,0,0,.364-1.214L24.509,4.125c-.243-.728-.728-1.092-1.457-.85a16.17,16.17,0,0,1-2.306.607C14.677,5.46,8.73,7.159,2.66,8.737c-.85.243-1.092.728-.85,1.457L4,18.2a1.091,1.091,0,0,0,1.578.85c2.549-.607,4.977-1.335,7.526-1.942.243,0,.364-.243.486-.486a7.84,7.84,0,0,1,7.283-5.462Zm6.555,7.647a6.555,6.555,0,1,0-6.555,6.555,6.527,6.527,0,0,0,6.555-6.555Z" transform="translate(-0.614 -1.714)" fill="#fff"/>
    <path id="Path_647" data-name="Path 647" d="M4.021,13.453c0-.728.243-1.092.728-1.214,1.7-.486,3.277-.85,4.977-1.335a1.01,1.01,0,0,1,1.214.728c0,.364.243.728.243,1.092a1.047,1.047,0,0,1-.728,1.335c-1.578.486-3.277.85-4.855,1.335a.994.994,0,0,1-1.214-.486c-.243-.486-.364-1.092-.486-1.335ZM9.969,12c-1.578.486-3.277.85-4.855,1.335,0,.364.243.728.243,1.092,1.7-.486,3.277-.85,4.855-1.335C10.212,12.725,9.969,12.361,9.969,12Z" transform="translate(0.088 0.246)" fill="#fff"/>
    <path id="Path_648" data-name="Path 648" d="M3.121,10.153c0-.728.243-1.092.728-1.214,1.7-.486,3.277-.85,4.977-1.335a1.01,1.01,0,0,1,1.214.728c0,.364.243.728.243,1.092a1.047,1.047,0,0,1-.728,1.335c-1.578.486-3.277.85-4.855,1.335a.994.994,0,0,1-1.214-.486c-.243-.486-.364-1.092-.486-1.335ZM9.069,8.575c-1.578.486-3.277.85-4.855,1.335,0,.364.243.728.243,1.092,1.7-.486,3.277-.85,4.855-1.335C9.312,9.3,9.069,8.939,9.069,8.575Z" transform="translate(-0.104 -0.46)" fill="#fff"/>
  </g>
  <path id="Path_649" data-name="Path 649" d="M20.79,12.343v.85h-.607v1.214a2.177,2.177,0,0,1-.607.85c-.243.243-.486.364-.728.607s-.364.486-.243.728c0,.121.121.243.243.364.243.243.607.486.85.728a2.643,2.643,0,0,1,.607.971v1.092h.607v.85H14.6v-.85h.607v-.728a1.825,1.825,0,0,1,.486-1.335,3.272,3.272,0,0,1,.971-.85s.243-.243.243-.364a.892.892,0,0,0-.243-.728c-.243-.243-.607-.486-.85-.728a2.643,2.643,0,0,1-.607-.971V12.95H14.6V12.1h6.312Zm-1.335,7.4v-.728a.73.73,0,0,0-.121-.486c0-.121-.243-.243-.364-.364-.243-.243-.486-.364-.728-.607a1.547,1.547,0,0,1-.486-.728h-.121c0,.364-.243.607-.607.85-.243.121-.364.364-.607.486-.121.121-.243.364-.364.486a3.3,3.3,0,0,0,0,1.092h0c.364-.121.85-.364,1.214-.486a1.34,1.34,0,0,1,.971,0c.364.121.85.364,1.214.486h0Zm0-6.555h-3.52v.486c0,.364,0,.607.364.85h2.792a1.746,1.746,0,0,1,.243-.364,2.612,2.612,0,0,0,0-.971Z" transform="translate(2.376 0.506)" fill="#fff"/>
</svg>
